G04 #@! TF.FileFunction,Legend,Top*
%FSLAX46Y46*%
G04 Gerber Fmt 4.6, Leading zero omitted, Abs format (unit mm)*
G04 Created by KiCad (PCBNEW 4.0.4-stable) date 04/19/19 18:38:00*
%MOMM*%
%LPD*%
G01*
G04 APERTURE LIST*
%ADD10C,0.100000*%
%ADD11C,0.120000*%
%ADD12C,0.500000*%
%ADD13C,0.150000*%
G04 APERTURE END LIST*
D10*
X101546429Y-82557143D02*
X101546429Y-82307143D01*
X101939286Y-82200000D02*
X101939286Y-82557143D01*
X101189286Y-82557143D01*
X101189286Y-82200000D01*
X101903571Y-81914286D02*
X101939286Y-81807143D01*
X101939286Y-81628572D01*
X101903571Y-81557143D01*
X101867857Y-81521429D01*
X101796429Y-81485714D01*
X101725000Y-81485714D01*
X101653571Y-81521429D01*
X101617857Y-81557143D01*
X101582143Y-81628572D01*
X101546429Y-81771429D01*
X101510714Y-81842857D01*
X101475000Y-81878572D01*
X101403571Y-81914286D01*
X101332143Y-81914286D01*
X101260714Y-81878572D01*
X101225000Y-81842857D01*
X101189286Y-81771429D01*
X101189286Y-81592857D01*
X101225000Y-81485714D01*
X101939286Y-81164286D02*
X101189286Y-81164286D01*
X101189286Y-80878571D01*
X101225000Y-80807143D01*
X101260714Y-80771428D01*
X101332143Y-80735714D01*
X101439286Y-80735714D01*
X101510714Y-80771428D01*
X101546429Y-80807143D01*
X101582143Y-80878571D01*
X101582143Y-81164286D01*
X101189286Y-80485714D02*
X101189286Y-80021428D01*
X101475000Y-80271428D01*
X101475000Y-80164286D01*
X101510714Y-80092857D01*
X101546429Y-80057143D01*
X101617857Y-80021428D01*
X101796429Y-80021428D01*
X101867857Y-80057143D01*
X101903571Y-80092857D01*
X101939286Y-80164286D01*
X101939286Y-80378571D01*
X101903571Y-80450000D01*
X101867857Y-80485714D01*
X101260714Y-79735714D02*
X101225000Y-79700000D01*
X101189286Y-79628571D01*
X101189286Y-79450000D01*
X101225000Y-79378571D01*
X101260714Y-79342857D01*
X101332143Y-79307142D01*
X101403571Y-79307142D01*
X101510714Y-79342857D01*
X101939286Y-79771428D01*
X101939286Y-79307142D01*
X101653571Y-78985714D02*
X101653571Y-78414285D01*
X101189286Y-78128571D02*
X101939286Y-77950000D01*
X101403571Y-77807143D01*
X101939286Y-77664285D01*
X101189286Y-77485714D01*
X101939286Y-77200000D02*
X101439286Y-77200000D01*
X101582143Y-77200000D02*
X101510714Y-77164285D01*
X101475000Y-77128571D01*
X101439286Y-77057142D01*
X101439286Y-76985714D01*
X101939286Y-76628571D02*
X101903571Y-76699999D01*
X101867857Y-76735714D01*
X101796429Y-76771428D01*
X101582143Y-76771428D01*
X101510714Y-76735714D01*
X101475000Y-76699999D01*
X101439286Y-76628571D01*
X101439286Y-76521428D01*
X101475000Y-76449999D01*
X101510714Y-76414285D01*
X101582143Y-76378571D01*
X101796429Y-76378571D01*
X101867857Y-76414285D01*
X101903571Y-76449999D01*
X101939286Y-76521428D01*
X101939286Y-76628571D01*
X101939286Y-75950000D02*
X101903571Y-76021428D01*
X101867857Y-76057143D01*
X101796429Y-76092857D01*
X101582143Y-76092857D01*
X101510714Y-76057143D01*
X101475000Y-76021428D01*
X101439286Y-75950000D01*
X101439286Y-75842857D01*
X101475000Y-75771428D01*
X101510714Y-75735714D01*
X101582143Y-75700000D01*
X101796429Y-75700000D01*
X101867857Y-75735714D01*
X101903571Y-75771428D01*
X101939286Y-75842857D01*
X101939286Y-75950000D01*
X101939286Y-75378572D02*
X101439286Y-75378572D01*
X101510714Y-75378572D02*
X101475000Y-75342857D01*
X101439286Y-75271429D01*
X101439286Y-75164286D01*
X101475000Y-75092857D01*
X101546429Y-75057143D01*
X101939286Y-75057143D01*
X101546429Y-75057143D02*
X101475000Y-75021429D01*
X101439286Y-74950000D01*
X101439286Y-74842857D01*
X101475000Y-74771429D01*
X101546429Y-74735714D01*
X101939286Y-74735714D01*
X101939286Y-73807143D02*
X101189286Y-73807143D01*
X101725000Y-73557143D01*
X101189286Y-73307143D01*
X101939286Y-73307143D01*
X101939286Y-72950000D02*
X101439286Y-72950000D01*
X101189286Y-72950000D02*
X101225000Y-72985714D01*
X101260714Y-72950000D01*
X101225000Y-72914285D01*
X101189286Y-72950000D01*
X101260714Y-72950000D01*
X101439286Y-72592857D02*
X101939286Y-72592857D01*
X101510714Y-72592857D02*
X101475000Y-72557142D01*
X101439286Y-72485714D01*
X101439286Y-72378571D01*
X101475000Y-72307142D01*
X101546429Y-72271428D01*
X101939286Y-72271428D01*
X101939286Y-71914286D02*
X101439286Y-71914286D01*
X101189286Y-71914286D02*
X101225000Y-71950000D01*
X101260714Y-71914286D01*
X101225000Y-71878571D01*
X101189286Y-71914286D01*
X101260714Y-71914286D01*
X101939286Y-71557143D02*
X101439286Y-71557143D01*
X101510714Y-71557143D02*
X101475000Y-71521428D01*
X101439286Y-71450000D01*
X101439286Y-71342857D01*
X101475000Y-71271428D01*
X101546429Y-71235714D01*
X101939286Y-71235714D01*
X101546429Y-71235714D02*
X101475000Y-71200000D01*
X101439286Y-71128571D01*
X101439286Y-71021428D01*
X101475000Y-70950000D01*
X101546429Y-70914285D01*
X101939286Y-70914285D01*
X101939286Y-70235714D02*
X101546429Y-70235714D01*
X101475000Y-70271428D01*
X101439286Y-70342857D01*
X101439286Y-70485714D01*
X101475000Y-70557143D01*
X101903571Y-70235714D02*
X101939286Y-70307143D01*
X101939286Y-70485714D01*
X101903571Y-70557143D01*
X101832143Y-70592857D01*
X101760714Y-70592857D01*
X101689286Y-70557143D01*
X101653571Y-70485714D01*
X101653571Y-70307143D01*
X101617857Y-70235714D01*
X101939286Y-69771429D02*
X101903571Y-69842857D01*
X101832143Y-69878572D01*
X101189286Y-69878572D01*
X117699286Y-101232857D02*
X117663572Y-101268571D01*
X117556429Y-101304286D01*
X117485000Y-101304286D01*
X117377857Y-101268571D01*
X117306429Y-101197143D01*
X117270714Y-101125714D01*
X117235000Y-100982857D01*
X117235000Y-100875714D01*
X117270714Y-100732857D01*
X117306429Y-100661429D01*
X117377857Y-100590000D01*
X117485000Y-100554286D01*
X117556429Y-100554286D01*
X117663572Y-100590000D01*
X117699286Y-100625714D01*
X117913572Y-100554286D02*
X118342143Y-100554286D01*
X118127857Y-101304286D02*
X118127857Y-100554286D01*
X118556429Y-101268571D02*
X118663572Y-101304286D01*
X118842143Y-101304286D01*
X118913572Y-101268571D01*
X118949286Y-101232857D01*
X118985001Y-101161429D01*
X118985001Y-101090000D01*
X118949286Y-101018571D01*
X118913572Y-100982857D01*
X118842143Y-100947143D01*
X118699286Y-100911429D01*
X118627858Y-100875714D01*
X118592143Y-100840000D01*
X118556429Y-100768571D01*
X118556429Y-100697143D01*
X118592143Y-100625714D01*
X118627858Y-100590000D01*
X118699286Y-100554286D01*
X118877858Y-100554286D01*
X118985001Y-100590000D01*
X114998572Y-100554286D02*
X115427143Y-100554286D01*
X115212857Y-101304286D02*
X115212857Y-100554286D01*
X115605715Y-100554286D02*
X116105715Y-101304286D01*
X116105715Y-100554286D02*
X115605715Y-101304286D01*
X113032000Y-101304286D02*
X112782000Y-100947143D01*
X112603428Y-101304286D02*
X112603428Y-100554286D01*
X112889143Y-100554286D01*
X112960571Y-100590000D01*
X112996286Y-100625714D01*
X113032000Y-100697143D01*
X113032000Y-100804286D01*
X112996286Y-100875714D01*
X112960571Y-100911429D01*
X112889143Y-100947143D01*
X112603428Y-100947143D01*
X113282000Y-100554286D02*
X113782000Y-101304286D01*
X113782000Y-100554286D02*
X113282000Y-101304286D01*
X109632857Y-101304286D02*
X109632857Y-100554286D01*
X109811429Y-100554286D01*
X109918572Y-100590000D01*
X109990000Y-100661429D01*
X110025715Y-100732857D01*
X110061429Y-100875714D01*
X110061429Y-100982857D01*
X110025715Y-101125714D01*
X109990000Y-101197143D01*
X109918572Y-101268571D01*
X109811429Y-101304286D01*
X109632857Y-101304286D01*
X110275715Y-100554286D02*
X110704286Y-100554286D01*
X110490000Y-101304286D02*
X110490000Y-100554286D01*
X111382858Y-101304286D02*
X111132858Y-100947143D01*
X110954286Y-101304286D02*
X110954286Y-100554286D01*
X111240001Y-100554286D01*
X111311429Y-100590000D01*
X111347144Y-100625714D01*
X111382858Y-100697143D01*
X111382858Y-100804286D01*
X111347144Y-100875714D01*
X111311429Y-100911429D01*
X111240001Y-100947143D01*
X110954286Y-100947143D01*
X107251572Y-100590000D02*
X107180143Y-100554286D01*
X107073000Y-100554286D01*
X106965857Y-100590000D01*
X106894429Y-100661429D01*
X106858714Y-100732857D01*
X106823000Y-100875714D01*
X106823000Y-100982857D01*
X106858714Y-101125714D01*
X106894429Y-101197143D01*
X106965857Y-101268571D01*
X107073000Y-101304286D01*
X107144429Y-101304286D01*
X107251572Y-101268571D01*
X107287286Y-101232857D01*
X107287286Y-100982857D01*
X107144429Y-100982857D01*
X107608714Y-101304286D02*
X107608714Y-100554286D01*
X108037286Y-101304286D01*
X108037286Y-100554286D01*
X108394428Y-101304286D02*
X108394428Y-100554286D01*
X108573000Y-100554286D01*
X108680143Y-100590000D01*
X108751571Y-100661429D01*
X108787286Y-100732857D01*
X108823000Y-100875714D01*
X108823000Y-100982857D01*
X108787286Y-101125714D01*
X108751571Y-101197143D01*
X108680143Y-101268571D01*
X108573000Y-101304286D01*
X108394428Y-101304286D01*
D11*
X111756000Y-91202000D02*
X111756000Y-93202000D01*
X113796000Y-93202000D02*
X113796000Y-91202000D01*
X118368000Y-93202000D02*
X118368000Y-91202000D01*
X116328000Y-91202000D02*
X116328000Y-93202000D01*
X109220000Y-100390000D02*
X119440000Y-100390000D01*
X119440000Y-100390000D02*
X119440000Y-97730000D01*
X119440000Y-97730000D02*
X109220000Y-97730000D01*
X109220000Y-97730000D02*
X109220000Y-100390000D01*
X107950000Y-100390000D02*
X106620000Y-100390000D01*
X106620000Y-100390000D02*
X106620000Y-99060000D01*
X107134000Y-93202000D02*
X107134000Y-91202000D01*
X109274000Y-91202000D02*
X109274000Y-93202000D01*
X104732000Y-93852000D02*
X105032000Y-93852000D01*
X105032000Y-93852000D02*
X105032000Y-90552000D01*
X105032000Y-90552000D02*
X104732000Y-90552000D01*
X102532000Y-93852000D02*
X102232000Y-93852000D01*
X102232000Y-93852000D02*
X102232000Y-90552000D01*
X102232000Y-90552000D02*
X102532000Y-90552000D01*
X123020000Y-93852000D02*
X123320000Y-93852000D01*
X123320000Y-93852000D02*
X123320000Y-90552000D01*
X123320000Y-90552000D02*
X123020000Y-90552000D01*
X120820000Y-93852000D02*
X120520000Y-93852000D01*
X120520000Y-93852000D02*
X120520000Y-90552000D01*
X120520000Y-90552000D02*
X120820000Y-90552000D01*
D12*
X103153981Y-65786000D02*
G75*
G03X103153981Y-65786000I-283981J0D01*
G01*
D13*
X121776000Y-65640000D02*
X103776000Y-65640000D01*
X103776000Y-59640000D02*
X103776000Y-85140000D01*
X121776000Y-59640000D02*
X121776000Y-85140000D01*
X121776000Y-85140000D02*
X103776000Y-85140000D01*
X121776000Y-59640000D02*
X103776000Y-59640000D01*
X111228143Y-94654666D02*
X111275762Y-94702285D01*
X111323381Y-94845142D01*
X111323381Y-94940380D01*
X111275762Y-95083238D01*
X111180524Y-95178476D01*
X111085286Y-95226095D01*
X110894810Y-95273714D01*
X110751952Y-95273714D01*
X110561476Y-95226095D01*
X110466238Y-95178476D01*
X110371000Y-95083238D01*
X110323381Y-94940380D01*
X110323381Y-94845142D01*
X110371000Y-94702285D01*
X110418619Y-94654666D01*
X111323381Y-93702285D02*
X111323381Y-94273714D01*
X111323381Y-93988000D02*
X110323381Y-93988000D01*
X110466238Y-94083238D01*
X110561476Y-94178476D01*
X110609095Y-94273714D01*
X111196381Y-91622428D02*
X111196381Y-92193857D01*
X111196381Y-91908143D02*
X110196381Y-91908143D01*
X110339238Y-92003381D01*
X110434476Y-92098619D01*
X110482095Y-92193857D01*
X110196381Y-91003381D02*
X110196381Y-90908142D01*
X110244000Y-90812904D01*
X110291619Y-90765285D01*
X110386857Y-90717666D01*
X110577333Y-90670047D01*
X110815429Y-90670047D01*
X111005905Y-90717666D01*
X111101143Y-90765285D01*
X111148762Y-90812904D01*
X111196381Y-90908142D01*
X111196381Y-91003381D01*
X111148762Y-91098619D01*
X111101143Y-91146238D01*
X111005905Y-91193857D01*
X110815429Y-91241476D01*
X110577333Y-91241476D01*
X110386857Y-91193857D01*
X110291619Y-91146238D01*
X110244000Y-91098619D01*
X110196381Y-91003381D01*
X110529714Y-89812904D02*
X111196381Y-89812904D01*
X110529714Y-90241476D02*
X111053524Y-90241476D01*
X111148762Y-90193857D01*
X111196381Y-90098619D01*
X111196381Y-89955761D01*
X111148762Y-89860523D01*
X111101143Y-89812904D01*
X110672571Y-89003380D02*
X110672571Y-89336714D01*
X111196381Y-89336714D02*
X110196381Y-89336714D01*
X110196381Y-88860523D01*
X115673143Y-95035666D02*
X115720762Y-95083285D01*
X115768381Y-95226142D01*
X115768381Y-95321380D01*
X115720762Y-95464238D01*
X115625524Y-95559476D01*
X115530286Y-95607095D01*
X115339810Y-95654714D01*
X115196952Y-95654714D01*
X115006476Y-95607095D01*
X114911238Y-95559476D01*
X114816000Y-95464238D01*
X114768381Y-95321380D01*
X114768381Y-95226142D01*
X114816000Y-95083285D01*
X114863619Y-95035666D01*
X115101714Y-94178523D02*
X115768381Y-94178523D01*
X114720762Y-94416619D02*
X115435048Y-94654714D01*
X115435048Y-94035666D01*
X115768381Y-92352619D02*
X115768381Y-92924048D01*
X115768381Y-92638334D02*
X114768381Y-92638334D01*
X114911238Y-92733572D01*
X115006476Y-92828810D01*
X115054095Y-92924048D01*
X114768381Y-91733572D02*
X114768381Y-91638333D01*
X114816000Y-91543095D01*
X114863619Y-91495476D01*
X114958857Y-91447857D01*
X115149333Y-91400238D01*
X115387429Y-91400238D01*
X115577905Y-91447857D01*
X115673143Y-91495476D01*
X115720762Y-91543095D01*
X115768381Y-91638333D01*
X115768381Y-91733572D01*
X115720762Y-91828810D01*
X115673143Y-91876429D01*
X115577905Y-91924048D01*
X115387429Y-91971667D01*
X115149333Y-91971667D01*
X114958857Y-91924048D01*
X114863619Y-91876429D01*
X114816000Y-91828810D01*
X114768381Y-91733572D01*
X114768381Y-90781191D02*
X114768381Y-90685952D01*
X114816000Y-90590714D01*
X114863619Y-90543095D01*
X114958857Y-90495476D01*
X115149333Y-90447857D01*
X115387429Y-90447857D01*
X115577905Y-90495476D01*
X115673143Y-90543095D01*
X115720762Y-90590714D01*
X115768381Y-90685952D01*
X115768381Y-90781191D01*
X115720762Y-90876429D01*
X115673143Y-90924048D01*
X115577905Y-90971667D01*
X115387429Y-91019286D01*
X115149333Y-91019286D01*
X114958857Y-90971667D01*
X114863619Y-90924048D01*
X114816000Y-90876429D01*
X114768381Y-90781191D01*
X115101714Y-90019286D02*
X115768381Y-90019286D01*
X115196952Y-90019286D02*
X115149333Y-89971667D01*
X115101714Y-89876429D01*
X115101714Y-89733571D01*
X115149333Y-89638333D01*
X115244571Y-89590714D01*
X115768381Y-89590714D01*
X115244571Y-88781190D02*
X115244571Y-89114524D01*
X115768381Y-89114524D02*
X114768381Y-89114524D01*
X114768381Y-88638333D01*
X106072381Y-99798095D02*
X105072381Y-99798095D01*
X105072381Y-99417142D01*
X105120000Y-99321904D01*
X105167619Y-99274285D01*
X105262857Y-99226666D01*
X105405714Y-99226666D01*
X105500952Y-99274285D01*
X105548571Y-99321904D01*
X105596190Y-99417142D01*
X105596190Y-99798095D01*
X106072381Y-98274285D02*
X106072381Y-98845714D01*
X106072381Y-98560000D02*
X105072381Y-98560000D01*
X105215238Y-98655238D01*
X105310476Y-98750476D01*
X105358095Y-98845714D01*
X106751381Y-94908666D02*
X106275190Y-95242000D01*
X106751381Y-95480095D02*
X105751381Y-95480095D01*
X105751381Y-95099142D01*
X105799000Y-95003904D01*
X105846619Y-94956285D01*
X105941857Y-94908666D01*
X106084714Y-94908666D01*
X106179952Y-94956285D01*
X106227571Y-95003904D01*
X106275190Y-95099142D01*
X106275190Y-95480095D01*
X106751381Y-93956285D02*
X106751381Y-94527714D01*
X106751381Y-94242000D02*
X105751381Y-94242000D01*
X105894238Y-94337238D01*
X105989476Y-94432476D01*
X106037095Y-94527714D01*
X106624381Y-90892238D02*
X106624381Y-91463667D01*
X106624381Y-91177953D02*
X105624381Y-91177953D01*
X105767238Y-91273191D01*
X105862476Y-91368429D01*
X105910095Y-91463667D01*
X105624381Y-90273191D02*
X105624381Y-90177952D01*
X105672000Y-90082714D01*
X105719619Y-90035095D01*
X105814857Y-89987476D01*
X106005333Y-89939857D01*
X106243429Y-89939857D01*
X106433905Y-89987476D01*
X106529143Y-90035095D01*
X106576762Y-90082714D01*
X106624381Y-90177952D01*
X106624381Y-90273191D01*
X106576762Y-90368429D01*
X106529143Y-90416048D01*
X106433905Y-90463667D01*
X106243429Y-90511286D01*
X106005333Y-90511286D01*
X105814857Y-90463667D01*
X105719619Y-90416048D01*
X105672000Y-90368429D01*
X105624381Y-90273191D01*
X106624381Y-89511286D02*
X105624381Y-89511286D01*
X106243429Y-89416048D02*
X106624381Y-89130333D01*
X105957714Y-89130333D02*
X106338667Y-89511286D01*
X101623762Y-93662333D02*
X101671381Y-93519476D01*
X101671381Y-93281380D01*
X101623762Y-93186142D01*
X101576143Y-93138523D01*
X101480905Y-93090904D01*
X101385667Y-93090904D01*
X101290429Y-93138523D01*
X101242810Y-93186142D01*
X101195190Y-93281380D01*
X101147571Y-93471857D01*
X101099952Y-93567095D01*
X101052333Y-93614714D01*
X100957095Y-93662333D01*
X100861857Y-93662333D01*
X100766619Y-93614714D01*
X100719000Y-93567095D01*
X100671381Y-93471857D01*
X100671381Y-93233761D01*
X100719000Y-93090904D01*
X100671381Y-92757571D02*
X101671381Y-92519476D01*
X100957095Y-92328999D01*
X101671381Y-92138523D01*
X100671381Y-91900428D01*
X101671381Y-90995666D02*
X101671381Y-91567095D01*
X101671381Y-91281381D02*
X100671381Y-91281381D01*
X100814238Y-91376619D01*
X100909476Y-91471857D01*
X100957095Y-91567095D01*
X102957381Y-95829381D02*
X102624047Y-95353190D01*
X102385952Y-95829381D02*
X102385952Y-94829381D01*
X102766905Y-94829381D01*
X102862143Y-94877000D01*
X102909762Y-94924619D01*
X102957381Y-95019857D01*
X102957381Y-95162714D01*
X102909762Y-95257952D01*
X102862143Y-95305571D01*
X102766905Y-95353190D01*
X102385952Y-95353190D01*
X103338333Y-95781762D02*
X103481190Y-95829381D01*
X103719286Y-95829381D01*
X103814524Y-95781762D01*
X103862143Y-95734143D01*
X103909762Y-95638905D01*
X103909762Y-95543667D01*
X103862143Y-95448429D01*
X103814524Y-95400810D01*
X103719286Y-95353190D01*
X103528809Y-95305571D01*
X103433571Y-95257952D01*
X103385952Y-95210333D01*
X103338333Y-95115095D01*
X103338333Y-95019857D01*
X103385952Y-94924619D01*
X103433571Y-94877000D01*
X103528809Y-94829381D01*
X103766905Y-94829381D01*
X103909762Y-94877000D01*
X104195476Y-94829381D02*
X104766905Y-94829381D01*
X104481190Y-95829381D02*
X104481190Y-94829381D01*
X119911762Y-93662333D02*
X119959381Y-93519476D01*
X119959381Y-93281380D01*
X119911762Y-93186142D01*
X119864143Y-93138523D01*
X119768905Y-93090904D01*
X119673667Y-93090904D01*
X119578429Y-93138523D01*
X119530810Y-93186142D01*
X119483190Y-93281380D01*
X119435571Y-93471857D01*
X119387952Y-93567095D01*
X119340333Y-93614714D01*
X119245095Y-93662333D01*
X119149857Y-93662333D01*
X119054619Y-93614714D01*
X119007000Y-93567095D01*
X118959381Y-93471857D01*
X118959381Y-93233761D01*
X119007000Y-93090904D01*
X118959381Y-92757571D02*
X119959381Y-92519476D01*
X119245095Y-92328999D01*
X119959381Y-92138523D01*
X118959381Y-91900428D01*
X119054619Y-91567095D02*
X119007000Y-91519476D01*
X118959381Y-91424238D01*
X118959381Y-91186142D01*
X119007000Y-91090904D01*
X119054619Y-91043285D01*
X119149857Y-90995666D01*
X119245095Y-90995666D01*
X119387952Y-91043285D01*
X119959381Y-91614714D01*
X119959381Y-90995666D01*
X120562858Y-95305571D02*
X120705715Y-95353190D01*
X120753334Y-95400810D01*
X120800953Y-95496048D01*
X120800953Y-95638905D01*
X120753334Y-95734143D01*
X120705715Y-95781762D01*
X120610477Y-95829381D01*
X120229524Y-95829381D01*
X120229524Y-94829381D01*
X120562858Y-94829381D01*
X120658096Y-94877000D01*
X120705715Y-94924619D01*
X120753334Y-95019857D01*
X120753334Y-95115095D01*
X120705715Y-95210333D01*
X120658096Y-95257952D01*
X120562858Y-95305571D01*
X120229524Y-95305571D01*
X121420000Y-94829381D02*
X121610477Y-94829381D01*
X121705715Y-94877000D01*
X121800953Y-94972238D01*
X121848572Y-95162714D01*
X121848572Y-95496048D01*
X121800953Y-95686524D01*
X121705715Y-95781762D01*
X121610477Y-95829381D01*
X121420000Y-95829381D01*
X121324762Y-95781762D01*
X121229524Y-95686524D01*
X121181905Y-95496048D01*
X121181905Y-95162714D01*
X121229524Y-94972238D01*
X121324762Y-94877000D01*
X121420000Y-94829381D01*
X122467619Y-94829381D02*
X122658096Y-94829381D01*
X122753334Y-94877000D01*
X122848572Y-94972238D01*
X122896191Y-95162714D01*
X122896191Y-95496048D01*
X122848572Y-95686524D01*
X122753334Y-95781762D01*
X122658096Y-95829381D01*
X122467619Y-95829381D01*
X122372381Y-95781762D01*
X122277143Y-95686524D01*
X122229524Y-95496048D01*
X122229524Y-95162714D01*
X122277143Y-94972238D01*
X122372381Y-94877000D01*
X122467619Y-94829381D01*
X123181905Y-94829381D02*
X123753334Y-94829381D01*
X123467619Y-95829381D02*
X123467619Y-94829381D01*
X123571095Y-62825381D02*
X123571095Y-63634905D01*
X123618714Y-63730143D01*
X123666333Y-63777762D01*
X123761571Y-63825381D01*
X123952048Y-63825381D01*
X124047286Y-63777762D01*
X124094905Y-63730143D01*
X124142524Y-63634905D01*
X124142524Y-62825381D01*
X125142524Y-63825381D02*
X124571095Y-63825381D01*
X124856809Y-63825381D02*
X124856809Y-62825381D01*
X124761571Y-62968238D01*
X124666333Y-63063476D01*
X124571095Y-63111095D01*
X119562571Y-79850430D02*
X119562571Y-79517096D01*
X120086381Y-79374239D02*
X120086381Y-79850430D01*
X119086381Y-79850430D01*
X119086381Y-79374239D01*
X120038762Y-78993287D02*
X120086381Y-78898049D01*
X120086381Y-78707573D01*
X120038762Y-78612334D01*
X119943524Y-78564715D01*
X119895905Y-78564715D01*
X119800667Y-78612334D01*
X119753048Y-78707573D01*
X119753048Y-78850430D01*
X119705429Y-78945668D01*
X119610190Y-78993287D01*
X119562571Y-78993287D01*
X119467333Y-78945668D01*
X119419714Y-78850430D01*
X119419714Y-78707573D01*
X119467333Y-78612334D01*
X119419714Y-78136144D02*
X120419714Y-78136144D01*
X119467333Y-78136144D02*
X119419714Y-78040906D01*
X119419714Y-77850429D01*
X119467333Y-77755191D01*
X119514952Y-77707572D01*
X119610190Y-77659953D01*
X119895905Y-77659953D01*
X119991143Y-77707572D01*
X120038762Y-77755191D01*
X120086381Y-77850429D01*
X120086381Y-78040906D01*
X120038762Y-78136144D01*
X120086381Y-77231382D02*
X119419714Y-77231382D01*
X119610190Y-77231382D02*
X119514952Y-77183763D01*
X119467333Y-77136144D01*
X119419714Y-77040906D01*
X119419714Y-76945667D01*
X120038762Y-76231381D02*
X120086381Y-76326619D01*
X120086381Y-76517096D01*
X120038762Y-76612334D01*
X119943524Y-76659953D01*
X119562571Y-76659953D01*
X119467333Y-76612334D01*
X119419714Y-76517096D01*
X119419714Y-76326619D01*
X119467333Y-76231381D01*
X119562571Y-76183762D01*
X119657810Y-76183762D01*
X119753048Y-76659953D01*
X120038762Y-75802810D02*
X120086381Y-75707572D01*
X120086381Y-75517096D01*
X120038762Y-75421857D01*
X119943524Y-75374238D01*
X119895905Y-75374238D01*
X119800667Y-75421857D01*
X119753048Y-75517096D01*
X119753048Y-75659953D01*
X119705429Y-75755191D01*
X119610190Y-75802810D01*
X119562571Y-75802810D01*
X119467333Y-75755191D01*
X119419714Y-75659953D01*
X119419714Y-75517096D01*
X119467333Y-75421857D01*
X120038762Y-74993286D02*
X120086381Y-74898048D01*
X120086381Y-74707572D01*
X120038762Y-74612333D01*
X119943524Y-74564714D01*
X119895905Y-74564714D01*
X119800667Y-74612333D01*
X119753048Y-74707572D01*
X119753048Y-74850429D01*
X119705429Y-74945667D01*
X119610190Y-74993286D01*
X119562571Y-74993286D01*
X119467333Y-74945667D01*
X119419714Y-74850429D01*
X119419714Y-74707572D01*
X119467333Y-74612333D01*
X120086381Y-74136143D02*
X119419714Y-74136143D01*
X119086381Y-74136143D02*
X119134000Y-74183762D01*
X119181619Y-74136143D01*
X119134000Y-74088524D01*
X119086381Y-74136143D01*
X119181619Y-74136143D01*
X119419714Y-73802810D02*
X119419714Y-73421858D01*
X120086381Y-73659953D02*
X119229238Y-73659953D01*
X119134000Y-73612334D01*
X119086381Y-73517096D01*
X119086381Y-73421858D01*
X120038762Y-72374238D02*
X120086381Y-72231381D01*
X120086381Y-71993285D01*
X120038762Y-71898047D01*
X119991143Y-71850428D01*
X119895905Y-71802809D01*
X119800667Y-71802809D01*
X119705429Y-71850428D01*
X119657810Y-71898047D01*
X119610190Y-71993285D01*
X119562571Y-72183762D01*
X119514952Y-72279000D01*
X119467333Y-72326619D01*
X119372095Y-72374238D01*
X119276857Y-72374238D01*
X119181619Y-72326619D01*
X119134000Y-72279000D01*
X119086381Y-72183762D01*
X119086381Y-71945666D01*
X119134000Y-71802809D01*
X119419714Y-71469476D02*
X120086381Y-71231381D01*
X119419714Y-70993285D02*
X120086381Y-71231381D01*
X120324476Y-71326619D01*
X120372095Y-71374238D01*
X120419714Y-71469476D01*
X120038762Y-70659952D02*
X120086381Y-70564714D01*
X120086381Y-70374238D01*
X120038762Y-70278999D01*
X119943524Y-70231380D01*
X119895905Y-70231380D01*
X119800667Y-70278999D01*
X119753048Y-70374238D01*
X119753048Y-70517095D01*
X119705429Y-70612333D01*
X119610190Y-70659952D01*
X119562571Y-70659952D01*
X119467333Y-70612333D01*
X119419714Y-70517095D01*
X119419714Y-70374238D01*
X119467333Y-70278999D01*
X119419714Y-69945666D02*
X119419714Y-69564714D01*
X119086381Y-69802809D02*
X119943524Y-69802809D01*
X120038762Y-69755190D01*
X120086381Y-69659952D01*
X120086381Y-69564714D01*
X120038762Y-68850427D02*
X120086381Y-68945665D01*
X120086381Y-69136142D01*
X120038762Y-69231380D01*
X119943524Y-69278999D01*
X119562571Y-69278999D01*
X119467333Y-69231380D01*
X119419714Y-69136142D01*
X119419714Y-68945665D01*
X119467333Y-68850427D01*
X119562571Y-68802808D01*
X119657810Y-68802808D01*
X119753048Y-69278999D01*
X120086381Y-68374237D02*
X119419714Y-68374237D01*
X119514952Y-68374237D02*
X119467333Y-68326618D01*
X119419714Y-68231380D01*
X119419714Y-68088522D01*
X119467333Y-67993284D01*
X119562571Y-67945665D01*
X120086381Y-67945665D01*
X119562571Y-67945665D02*
X119467333Y-67898046D01*
X119419714Y-67802808D01*
X119419714Y-67659951D01*
X119467333Y-67564713D01*
X119562571Y-67517094D01*
X120086381Y-67517094D01*
X120038762Y-67088523D02*
X120086381Y-66993285D01*
X120086381Y-66802809D01*
X120038762Y-66707570D01*
X119943524Y-66659951D01*
X119895905Y-66659951D01*
X119800667Y-66707570D01*
X119753048Y-66802809D01*
X119753048Y-66945666D01*
X119705429Y-67040904D01*
X119610190Y-67088523D01*
X119562571Y-67088523D01*
X119467333Y-67040904D01*
X119419714Y-66945666D01*
X119419714Y-66802809D01*
X119467333Y-66707570D01*
X117911571Y-77588381D02*
X117911571Y-77255047D01*
X118435381Y-77112190D02*
X118435381Y-77588381D01*
X117435381Y-77588381D01*
X117435381Y-77112190D01*
X118387762Y-76731238D02*
X118435381Y-76588381D01*
X118435381Y-76350285D01*
X118387762Y-76255047D01*
X118340143Y-76207428D01*
X118244905Y-76159809D01*
X118149667Y-76159809D01*
X118054429Y-76207428D01*
X118006810Y-76255047D01*
X117959190Y-76350285D01*
X117911571Y-76540762D01*
X117863952Y-76636000D01*
X117816333Y-76683619D01*
X117721095Y-76731238D01*
X117625857Y-76731238D01*
X117530619Y-76683619D01*
X117483000Y-76636000D01*
X117435381Y-76540762D01*
X117435381Y-76302666D01*
X117483000Y-76159809D01*
X118435381Y-75731238D02*
X117435381Y-75731238D01*
X117435381Y-75350285D01*
X117483000Y-75255047D01*
X117530619Y-75207428D01*
X117625857Y-75159809D01*
X117768714Y-75159809D01*
X117863952Y-75207428D01*
X117911571Y-75255047D01*
X117959190Y-75350285D01*
X117959190Y-75731238D01*
X117435381Y-74826476D02*
X117435381Y-74207428D01*
X117816333Y-74540762D01*
X117816333Y-74397904D01*
X117863952Y-74302666D01*
X117911571Y-74255047D01*
X118006810Y-74207428D01*
X118244905Y-74207428D01*
X118340143Y-74255047D01*
X118387762Y-74302666D01*
X118435381Y-74397904D01*
X118435381Y-74683619D01*
X118387762Y-74778857D01*
X118340143Y-74826476D01*
X117530619Y-73826476D02*
X117483000Y-73778857D01*
X117435381Y-73683619D01*
X117435381Y-73445523D01*
X117483000Y-73350285D01*
X117530619Y-73302666D01*
X117625857Y-73255047D01*
X117721095Y-73255047D01*
X117863952Y-73302666D01*
X118435381Y-73874095D01*
X118435381Y-73255047D01*
X118054429Y-72826476D02*
X118054429Y-72064571D01*
X117435381Y-71683619D02*
X118435381Y-71445524D01*
X117721095Y-71255047D01*
X118435381Y-71064571D01*
X117435381Y-70826476D01*
X118435381Y-69874095D02*
X117959190Y-70207429D01*
X118435381Y-70445524D02*
X117435381Y-70445524D01*
X117435381Y-70064571D01*
X117483000Y-69969333D01*
X117530619Y-69921714D01*
X117625857Y-69874095D01*
X117768714Y-69874095D01*
X117863952Y-69921714D01*
X117911571Y-69969333D01*
X117959190Y-70064571D01*
X117959190Y-70445524D01*
X117435381Y-69255048D02*
X117435381Y-69064571D01*
X117483000Y-68969333D01*
X117578238Y-68874095D01*
X117768714Y-68826476D01*
X118102048Y-68826476D01*
X118292524Y-68874095D01*
X118387762Y-68969333D01*
X118435381Y-69064571D01*
X118435381Y-69255048D01*
X118387762Y-69350286D01*
X118292524Y-69445524D01*
X118102048Y-69493143D01*
X117768714Y-69493143D01*
X117578238Y-69445524D01*
X117483000Y-69350286D01*
X117435381Y-69255048D01*
X117435381Y-68207429D02*
X117435381Y-68016952D01*
X117483000Y-67921714D01*
X117578238Y-67826476D01*
X117768714Y-67778857D01*
X118102048Y-67778857D01*
X118292524Y-67826476D01*
X118387762Y-67921714D01*
X118435381Y-68016952D01*
X118435381Y-68207429D01*
X118387762Y-68302667D01*
X118292524Y-68397905D01*
X118102048Y-68445524D01*
X117768714Y-68445524D01*
X117578238Y-68397905D01*
X117483000Y-68302667D01*
X117435381Y-68207429D01*
X118435381Y-67350286D02*
X117435381Y-67350286D01*
X118149667Y-67016952D01*
X117435381Y-66683619D01*
X118435381Y-66683619D01*
M02*
