G04 #@! TF.FileFunction,Copper,L1,Top,Signal*
%FSLAX46Y46*%
G04 Gerber Fmt 4.6, Leading zero omitted, Abs format (unit mm)*
G04 Created by KiCad (PCBNEW 4.0.4-stable) date 04/19/19 18:38:00*
%MOMM*%
%LPD*%
G01*
G04 APERTURE LIST*
%ADD10C,0.100000*%
%ADD11R,1.600000X2.000000*%
%ADD12R,1.700000X1.700000*%
%ADD13O,1.700000X1.700000*%
%ADD14R,1.700000X2.000000*%
%ADD15R,1.700000X0.900000*%
%ADD16O,2.500000X0.900000*%
%ADD17O,0.900000X2.500000*%
%ADD18R,6.000000X6.000000*%
%ADD19C,0.600000*%
%ADD20C,0.250000*%
%ADD21C,0.200000*%
G04 APERTURE END LIST*
D10*
D11*
X112776000Y-94202000D03*
X112776000Y-90202000D03*
X117348000Y-90202000D03*
X117348000Y-94202000D03*
D12*
X107950000Y-99060000D03*
D13*
X110490000Y-99060000D03*
X113030000Y-99060000D03*
X115570000Y-99060000D03*
X118110000Y-99060000D03*
D14*
X108204000Y-90202000D03*
X108204000Y-94202000D03*
D15*
X103632000Y-93902000D03*
X103632000Y-90502000D03*
X121920000Y-93902000D03*
X121920000Y-90502000D03*
D16*
X121776000Y-67140000D03*
X121776000Y-68410000D03*
X121776000Y-69680000D03*
X121776000Y-70950000D03*
X121776000Y-72220000D03*
X121776000Y-73490000D03*
X121776000Y-74760000D03*
X121776000Y-76030000D03*
X121776000Y-77300000D03*
X121776000Y-78570000D03*
X121776000Y-79840000D03*
X121776000Y-81110000D03*
X121776000Y-82380000D03*
X121776000Y-83650000D03*
D17*
X118491000Y-85140000D03*
X117221000Y-85140000D03*
X115951000Y-85140000D03*
X114681000Y-85140000D03*
X113411000Y-85140000D03*
X112141000Y-85140000D03*
X110871000Y-85140000D03*
X109601000Y-85140000D03*
X108331000Y-85140000D03*
X107061000Y-85140000D03*
D16*
X103776000Y-83650000D03*
X103776000Y-82380000D03*
X103776000Y-81110000D03*
X103776000Y-79840000D03*
X103776000Y-78570000D03*
X103776000Y-77300000D03*
X103776000Y-76030000D03*
X103776000Y-74760000D03*
X103776000Y-73490000D03*
X103776000Y-72220000D03*
X103776000Y-70950000D03*
X103776000Y-69680000D03*
X103776000Y-68410000D03*
X103776000Y-67140000D03*
D18*
X112476000Y-74840000D03*
D19*
X108077000Y-89916000D03*
X107061000Y-71755000D03*
X117348000Y-94202000D03*
X112776000Y-90170000D03*
X117729000Y-67691000D03*
X107188000Y-67691000D03*
X108204000Y-94202000D03*
X104267000Y-69723000D03*
X118110000Y-80772000D03*
D20*
X108204000Y-90202000D02*
X109633000Y-90202000D01*
X110998000Y-92424000D02*
X112776000Y-94202000D01*
X110998000Y-91567000D02*
X110998000Y-92424000D01*
X109633000Y-90202000D02*
X110998000Y-91567000D01*
X108077000Y-89916000D02*
X108204000Y-90043000D01*
X108204000Y-90043000D02*
X108204000Y-90202000D01*
X103776000Y-68410000D02*
X106129000Y-68410000D01*
X107061000Y-69342000D02*
X107061000Y-71755000D01*
X106129000Y-68410000D02*
X107061000Y-69342000D01*
X117648000Y-93902000D02*
X117348000Y-94202000D01*
X112776000Y-90170000D02*
X112776000Y-90202000D01*
X107950000Y-99060000D02*
X107950000Y-98298000D01*
X107950000Y-98298000D02*
X109855000Y-96393000D01*
X109855000Y-96393000D02*
X113538000Y-96393000D01*
X113538000Y-96393000D02*
X114554000Y-95377000D01*
X114554000Y-95377000D02*
X114554000Y-91980000D01*
X114554000Y-91980000D02*
X112776000Y-90202000D01*
X107061000Y-85140000D02*
X107011000Y-85140000D01*
X107011000Y-85140000D02*
X102235000Y-89916000D01*
X102235000Y-89916000D02*
X102235000Y-92505000D01*
X102235000Y-92505000D02*
X103632000Y-93902000D01*
X121920000Y-93902000D02*
X117648000Y-93902000D01*
X107950000Y-99060000D02*
X107696000Y-99060000D01*
X107696000Y-99060000D02*
X103632000Y-94996000D01*
X103632000Y-94996000D02*
X103632000Y-93902000D01*
X121776000Y-67140000D02*
X118661000Y-67140000D01*
X118110000Y-67691000D02*
X117729000Y-67691000D01*
X118661000Y-67140000D02*
X118110000Y-67691000D01*
X103776000Y-67140000D02*
X106977000Y-67140000D01*
X107188000Y-67351000D02*
X107188000Y-67691000D01*
X106977000Y-67140000D02*
X107188000Y-67351000D01*
X107283000Y-94202000D02*
X106172000Y-93091000D01*
X106172000Y-93091000D02*
X106172000Y-93042000D01*
X103632000Y-90502000D02*
X106172000Y-93042000D01*
X108204000Y-94202000D02*
X107283000Y-94202000D01*
X104267000Y-69723000D02*
X104224000Y-69680000D01*
X104224000Y-69680000D02*
X103776000Y-69680000D01*
X118110000Y-99060000D02*
X118110000Y-98044000D01*
X116300000Y-90202000D02*
X117348000Y-90202000D01*
X115951000Y-90551000D02*
X116300000Y-90202000D01*
X115951000Y-96012000D02*
X115951000Y-90551000D01*
X116205000Y-96266000D02*
X115951000Y-96012000D01*
X116332000Y-96266000D02*
X116205000Y-96266000D01*
X118110000Y-98044000D02*
X116332000Y-96266000D01*
X121920000Y-90502000D02*
X121920000Y-83794000D01*
X121920000Y-83794000D02*
X121776000Y-83650000D01*
X117348000Y-90202000D02*
X121620000Y-90202000D01*
X121620000Y-90202000D02*
X121920000Y-90502000D01*
X113030000Y-99060000D02*
X113030000Y-98552000D01*
X113030000Y-98552000D02*
X115189000Y-96393000D01*
X115189000Y-96393000D02*
X115189000Y-88646000D01*
X115189000Y-88646000D02*
X116078000Y-87757000D01*
X116078000Y-87757000D02*
X119253000Y-87757000D01*
X119253000Y-87757000D02*
X119761000Y-87249000D01*
X119761000Y-87249000D02*
X119761000Y-83947000D01*
X119761000Y-83947000D02*
X119507000Y-83693000D01*
X119507000Y-83693000D02*
X119507000Y-83185000D01*
X119507000Y-83185000D02*
X117221000Y-80899000D01*
X117221000Y-80899000D02*
X117221000Y-72644000D01*
X117221000Y-72644000D02*
X118915000Y-70950000D01*
X118915000Y-70950000D02*
X121776000Y-70950000D01*
X121776000Y-72220000D02*
X118788000Y-72220000D01*
X117729000Y-80391000D02*
X118110000Y-80772000D01*
X117729000Y-73279000D02*
X117729000Y-80391000D01*
X118788000Y-72220000D02*
X117729000Y-73279000D01*
D21*
G36*
X124085000Y-98849311D02*
X123709165Y-98286835D01*
X123121362Y-97894077D01*
X122428000Y-97756159D01*
X121734638Y-97894077D01*
X121146835Y-98286835D01*
X120754077Y-98874638D01*
X120616159Y-99568000D01*
X120754077Y-100261362D01*
X121146835Y-100849165D01*
X121709311Y-101225000D01*
X102826689Y-101225000D01*
X103389165Y-100849165D01*
X103781923Y-100261362D01*
X103919841Y-99568000D01*
X103843658Y-99185000D01*
X106800000Y-99185000D01*
X106800000Y-99969674D01*
X106845672Y-100079937D01*
X106930064Y-100164328D01*
X107040327Y-100210000D01*
X107825000Y-100210000D01*
X107900000Y-100135000D01*
X107900000Y-99110000D01*
X108000000Y-99110000D01*
X108000000Y-100135000D01*
X108075000Y-100210000D01*
X108859673Y-100210000D01*
X108969936Y-100164328D01*
X109054328Y-100079937D01*
X109100000Y-99969674D01*
X109100000Y-99185000D01*
X109025000Y-99110000D01*
X108000000Y-99110000D01*
X107900000Y-99110000D01*
X106875000Y-99110000D01*
X106800000Y-99185000D01*
X103843658Y-99185000D01*
X103814313Y-99037470D01*
X109340000Y-99037470D01*
X109340000Y-99082530D01*
X109427539Y-99522616D01*
X109676827Y-99895703D01*
X110049914Y-100144991D01*
X110490000Y-100232530D01*
X110930086Y-100144991D01*
X111303173Y-99895703D01*
X111552461Y-99522616D01*
X111640000Y-99082530D01*
X111640000Y-99037470D01*
X111880000Y-99037470D01*
X111880000Y-99082530D01*
X111967539Y-99522616D01*
X112216827Y-99895703D01*
X112589914Y-100144991D01*
X113030000Y-100232530D01*
X113470086Y-100144991D01*
X113843173Y-99895703D01*
X114092461Y-99522616D01*
X114180000Y-99082530D01*
X114180000Y-99037470D01*
X114420000Y-99037470D01*
X114420000Y-99082530D01*
X114507539Y-99522616D01*
X114756827Y-99895703D01*
X115129914Y-100144991D01*
X115570000Y-100232530D01*
X116010086Y-100144991D01*
X116383173Y-99895703D01*
X116632461Y-99522616D01*
X116720000Y-99082530D01*
X116720000Y-99037470D01*
X116632461Y-98597384D01*
X116383173Y-98224297D01*
X116010086Y-97975009D01*
X115570000Y-97887470D01*
X115129914Y-97975009D01*
X114756827Y-98224297D01*
X114507539Y-98597384D01*
X114420000Y-99037470D01*
X114180000Y-99037470D01*
X114092461Y-98597384D01*
X113889464Y-98293576D01*
X115489520Y-96693520D01*
X115581649Y-96555641D01*
X115587016Y-96528657D01*
X115614000Y-96393000D01*
X115614000Y-96257925D01*
X115650480Y-96312520D01*
X115904479Y-96566520D01*
X115996608Y-96628078D01*
X116042360Y-96658649D01*
X116143783Y-96678823D01*
X117532071Y-98067112D01*
X117296827Y-98224297D01*
X117047539Y-98597384D01*
X116960000Y-99037470D01*
X116960000Y-99082530D01*
X117047539Y-99522616D01*
X117296827Y-99895703D01*
X117669914Y-100144991D01*
X118110000Y-100232530D01*
X118550086Y-100144991D01*
X118923173Y-99895703D01*
X119172461Y-99522616D01*
X119260000Y-99082530D01*
X119260000Y-99037470D01*
X119172461Y-98597384D01*
X118923173Y-98224297D01*
X118550086Y-97975009D01*
X118520090Y-97969042D01*
X118505179Y-97894077D01*
X118502649Y-97881359D01*
X118410521Y-97743480D01*
X116632520Y-95965480D01*
X116494641Y-95873351D01*
X116467657Y-95867984D01*
X116393217Y-95853177D01*
X116376000Y-95835960D01*
X116376000Y-95454264D01*
X116378064Y-95456328D01*
X116488327Y-95502000D01*
X117223000Y-95502000D01*
X117298000Y-95427000D01*
X117298000Y-94252000D01*
X117398000Y-94252000D01*
X117398000Y-95427000D01*
X117473000Y-95502000D01*
X118207673Y-95502000D01*
X118317936Y-95456328D01*
X118402328Y-95371937D01*
X118448000Y-95261674D01*
X118448000Y-94327000D01*
X118373000Y-94252000D01*
X117398000Y-94252000D01*
X117298000Y-94252000D01*
X117278000Y-94252000D01*
X117278000Y-94152000D01*
X117298000Y-94152000D01*
X117298000Y-92977000D01*
X117398000Y-92977000D01*
X117398000Y-94152000D01*
X118373000Y-94152000D01*
X118448000Y-94077000D01*
X118448000Y-94027000D01*
X120770000Y-94027000D01*
X120770000Y-94411674D01*
X120815672Y-94521937D01*
X120900064Y-94606328D01*
X121010327Y-94652000D01*
X121795000Y-94652000D01*
X121870000Y-94577000D01*
X121870000Y-93952000D01*
X121970000Y-93952000D01*
X121970000Y-94577000D01*
X122045000Y-94652000D01*
X122829673Y-94652000D01*
X122939936Y-94606328D01*
X123024328Y-94521937D01*
X123070000Y-94411674D01*
X123070000Y-94027000D01*
X122995000Y-93952000D01*
X121970000Y-93952000D01*
X121870000Y-93952000D01*
X120845000Y-93952000D01*
X120770000Y-94027000D01*
X118448000Y-94027000D01*
X118448000Y-93392326D01*
X120770000Y-93392326D01*
X120770000Y-93777000D01*
X120845000Y-93852000D01*
X121870000Y-93852000D01*
X121870000Y-93227000D01*
X121970000Y-93227000D01*
X121970000Y-93852000D01*
X122995000Y-93852000D01*
X123070000Y-93777000D01*
X123070000Y-93392326D01*
X123024328Y-93282063D01*
X122939936Y-93197672D01*
X122829673Y-93152000D01*
X122045000Y-93152000D01*
X121970000Y-93227000D01*
X121870000Y-93227000D01*
X121795000Y-93152000D01*
X121010327Y-93152000D01*
X120900064Y-93197672D01*
X120815672Y-93282063D01*
X120770000Y-93392326D01*
X118448000Y-93392326D01*
X118448000Y-93142326D01*
X118402328Y-93032063D01*
X118317936Y-92947672D01*
X118207673Y-92902000D01*
X117473000Y-92902000D01*
X117398000Y-92977000D01*
X117298000Y-92977000D01*
X117223000Y-92902000D01*
X116488327Y-92902000D01*
X116378064Y-92947672D01*
X116376000Y-92949736D01*
X116376000Y-91447567D01*
X116428997Y-91483778D01*
X116548000Y-91507877D01*
X118148000Y-91507877D01*
X118259173Y-91486958D01*
X118361279Y-91421255D01*
X118429778Y-91321003D01*
X118453877Y-91202000D01*
X118453877Y-90627000D01*
X120764123Y-90627000D01*
X120764123Y-90952000D01*
X120785042Y-91063173D01*
X120850745Y-91165279D01*
X120950997Y-91233778D01*
X121070000Y-91257877D01*
X122770000Y-91257877D01*
X122881173Y-91236958D01*
X122983279Y-91171255D01*
X123051778Y-91071003D01*
X123075877Y-90952000D01*
X123075877Y-90052000D01*
X123054958Y-89940827D01*
X122989255Y-89838721D01*
X122889003Y-89770222D01*
X122770000Y-89746123D01*
X122345000Y-89746123D01*
X122345000Y-84400000D01*
X122606366Y-84400000D01*
X122893379Y-84342910D01*
X123136696Y-84180330D01*
X123299276Y-83937013D01*
X123356366Y-83650000D01*
X123299276Y-83362987D01*
X123136696Y-83119670D01*
X122980047Y-83015000D01*
X123136696Y-82910330D01*
X123299276Y-82667013D01*
X123356366Y-82380000D01*
X123299276Y-82092987D01*
X123136696Y-81849670D01*
X122980047Y-81745000D01*
X123136696Y-81640330D01*
X123299276Y-81397013D01*
X123356366Y-81110000D01*
X123299276Y-80822987D01*
X123136696Y-80579670D01*
X122980047Y-80475000D01*
X123136696Y-80370330D01*
X123299276Y-80127013D01*
X123356366Y-79840000D01*
X123299276Y-79552987D01*
X123136696Y-79309670D01*
X122980047Y-79205000D01*
X123136696Y-79100330D01*
X123299276Y-78857013D01*
X123356366Y-78570000D01*
X123299276Y-78282987D01*
X123136696Y-78039670D01*
X122980047Y-77935000D01*
X123136696Y-77830330D01*
X123299276Y-77587013D01*
X123356366Y-77300000D01*
X123299276Y-77012987D01*
X123136696Y-76769670D01*
X122980047Y-76665000D01*
X123136696Y-76560330D01*
X123299276Y-76317013D01*
X123356366Y-76030000D01*
X123299276Y-75742987D01*
X123136696Y-75499670D01*
X122980047Y-75395000D01*
X123136696Y-75290330D01*
X123299276Y-75047013D01*
X123356366Y-74760000D01*
X123299276Y-74472987D01*
X123136696Y-74229670D01*
X122980047Y-74125000D01*
X123136696Y-74020330D01*
X123299276Y-73777013D01*
X123356366Y-73490000D01*
X123299276Y-73202987D01*
X123136696Y-72959670D01*
X122980047Y-72855000D01*
X123136696Y-72750330D01*
X123299276Y-72507013D01*
X123356366Y-72220000D01*
X123299276Y-71932987D01*
X123136696Y-71689670D01*
X122980047Y-71585000D01*
X123136696Y-71480330D01*
X123299276Y-71237013D01*
X123356366Y-70950000D01*
X123299276Y-70662987D01*
X123136696Y-70419670D01*
X122980047Y-70315000D01*
X123136696Y-70210330D01*
X123299276Y-69967013D01*
X123356366Y-69680000D01*
X123299276Y-69392987D01*
X123136696Y-69149670D01*
X122980047Y-69045000D01*
X123136696Y-68940330D01*
X123299276Y-68697013D01*
X123356366Y-68410000D01*
X123299276Y-68122987D01*
X123136696Y-67879670D01*
X122969118Y-67767697D01*
X123141686Y-67634974D01*
X123288044Y-67380818D01*
X123307296Y-67306449D01*
X123249146Y-67190000D01*
X121826000Y-67190000D01*
X121826000Y-67210000D01*
X121726000Y-67210000D01*
X121726000Y-67190000D01*
X120302854Y-67190000D01*
X120244704Y-67306449D01*
X120263956Y-67380818D01*
X120410314Y-67634974D01*
X120582882Y-67767697D01*
X120415304Y-67879670D01*
X120252724Y-68122987D01*
X120195634Y-68410000D01*
X120252724Y-68697013D01*
X120415304Y-68940330D01*
X120571953Y-69045000D01*
X120415304Y-69149670D01*
X120252724Y-69392987D01*
X120195634Y-69680000D01*
X120252724Y-69967013D01*
X120415304Y-70210330D01*
X120571953Y-70315000D01*
X120415304Y-70419670D01*
X120344924Y-70525000D01*
X118915000Y-70525000D01*
X118752359Y-70557351D01*
X118614480Y-70649479D01*
X116920480Y-72343480D01*
X116828351Y-72481359D01*
X116828351Y-72481360D01*
X116796000Y-72644000D01*
X116796000Y-80899000D01*
X116822984Y-81034657D01*
X116828351Y-81061641D01*
X116920480Y-81199520D01*
X119082000Y-83361041D01*
X119082000Y-83693000D01*
X119100173Y-83784360D01*
X119114351Y-83855641D01*
X119206480Y-83993520D01*
X119336000Y-84123041D01*
X119336000Y-87072959D01*
X119076960Y-87332000D01*
X116078000Y-87332000D01*
X115915359Y-87364351D01*
X115777480Y-87456480D01*
X114888480Y-88345480D01*
X114796351Y-88483359D01*
X114796351Y-88483360D01*
X114764000Y-88646000D01*
X114764000Y-96216960D01*
X113082956Y-97898004D01*
X113030000Y-97887470D01*
X112589914Y-97975009D01*
X112216827Y-98224297D01*
X111967539Y-98597384D01*
X111880000Y-99037470D01*
X111640000Y-99037470D01*
X111552461Y-98597384D01*
X111303173Y-98224297D01*
X110930086Y-97975009D01*
X110490000Y-97887470D01*
X110049914Y-97975009D01*
X109676827Y-98224297D01*
X109427539Y-98597384D01*
X109340000Y-99037470D01*
X103814313Y-99037470D01*
X103781923Y-98874638D01*
X103389165Y-98286835D01*
X103184866Y-98150326D01*
X106800000Y-98150326D01*
X106800000Y-98935000D01*
X106875000Y-99010000D01*
X107900000Y-99010000D01*
X107900000Y-97985000D01*
X108000000Y-97985000D01*
X108000000Y-99010000D01*
X109025000Y-99010000D01*
X109100000Y-98935000D01*
X109100000Y-98150326D01*
X109054328Y-98040063D01*
X108969936Y-97955672D01*
X108859673Y-97910000D01*
X108075000Y-97910000D01*
X108000000Y-97985000D01*
X107900000Y-97985000D01*
X107825000Y-97910000D01*
X107040327Y-97910000D01*
X106930064Y-97955672D01*
X106845672Y-98040063D01*
X106800000Y-98150326D01*
X103184866Y-98150326D01*
X102801362Y-97894077D01*
X102108000Y-97756159D01*
X101414638Y-97894077D01*
X100826835Y-98286835D01*
X100705000Y-98469174D01*
X100705000Y-94027000D01*
X102482000Y-94027000D01*
X102482000Y-94411674D01*
X102527672Y-94521937D01*
X102612064Y-94606328D01*
X102722327Y-94652000D01*
X103507000Y-94652000D01*
X103582000Y-94577000D01*
X103582000Y-93952000D01*
X103682000Y-93952000D01*
X103682000Y-94577000D01*
X103757000Y-94652000D01*
X104541673Y-94652000D01*
X104651936Y-94606328D01*
X104736328Y-94521937D01*
X104782000Y-94411674D01*
X104782000Y-94027000D01*
X104707000Y-93952000D01*
X103682000Y-93952000D01*
X103582000Y-93952000D01*
X102557000Y-93952000D01*
X102482000Y-94027000D01*
X100705000Y-94027000D01*
X100705000Y-93392326D01*
X102482000Y-93392326D01*
X102482000Y-93777000D01*
X102557000Y-93852000D01*
X103582000Y-93852000D01*
X103582000Y-93227000D01*
X103682000Y-93227000D01*
X103682000Y-93852000D01*
X104707000Y-93852000D01*
X104782000Y-93777000D01*
X104782000Y-93392326D01*
X104736328Y-93282063D01*
X104651936Y-93197672D01*
X104541673Y-93152000D01*
X103757000Y-93152000D01*
X103682000Y-93227000D01*
X103582000Y-93227000D01*
X103507000Y-93152000D01*
X102722327Y-93152000D01*
X102612064Y-93197672D01*
X102527672Y-93282063D01*
X102482000Y-93392326D01*
X100705000Y-93392326D01*
X100705000Y-90052000D01*
X102476123Y-90052000D01*
X102476123Y-90952000D01*
X102497042Y-91063173D01*
X102562745Y-91165279D01*
X102662997Y-91233778D01*
X102782000Y-91257877D01*
X103786837Y-91257877D01*
X105778544Y-93249585D01*
X105779351Y-93253641D01*
X105871480Y-93391520D01*
X106982479Y-94502520D01*
X107011539Y-94521937D01*
X107048123Y-94546382D01*
X107048123Y-95202000D01*
X107069042Y-95313173D01*
X107134745Y-95415279D01*
X107234997Y-95483778D01*
X107354000Y-95507877D01*
X109054000Y-95507877D01*
X109165173Y-95486958D01*
X109267279Y-95421255D01*
X109335778Y-95321003D01*
X109359877Y-95202000D01*
X109359877Y-93202000D01*
X109338958Y-93090827D01*
X109273255Y-92988721D01*
X109173003Y-92920222D01*
X109054000Y-92896123D01*
X107354000Y-92896123D01*
X107242827Y-92917042D01*
X107140721Y-92982745D01*
X107072222Y-93082997D01*
X107048123Y-93202000D01*
X107048123Y-93366082D01*
X106565456Y-92883416D01*
X106564649Y-92879360D01*
X106505261Y-92790480D01*
X106472520Y-92741479D01*
X104770222Y-91039182D01*
X104787877Y-90952000D01*
X104787877Y-90052000D01*
X104766958Y-89940827D01*
X104701255Y-89838721D01*
X104601003Y-89770222D01*
X104482000Y-89746123D01*
X102782000Y-89746123D01*
X102670827Y-89767042D01*
X102568721Y-89832745D01*
X102500222Y-89932997D01*
X102476123Y-90052000D01*
X100705000Y-90052000D01*
X100705000Y-89202000D01*
X107048123Y-89202000D01*
X107048123Y-91202000D01*
X107069042Y-91313173D01*
X107134745Y-91415279D01*
X107234997Y-91483778D01*
X107354000Y-91507877D01*
X109054000Y-91507877D01*
X109165173Y-91486958D01*
X109267279Y-91421255D01*
X109335778Y-91321003D01*
X109359877Y-91202000D01*
X109359877Y-90627000D01*
X109456960Y-90627000D01*
X110573000Y-91743041D01*
X110573000Y-92424000D01*
X110599984Y-92559657D01*
X110605351Y-92586641D01*
X110697480Y-92724520D01*
X111670123Y-93697164D01*
X111670123Y-95202000D01*
X111691042Y-95313173D01*
X111756745Y-95415279D01*
X111856997Y-95483778D01*
X111976000Y-95507877D01*
X113576000Y-95507877D01*
X113687173Y-95486958D01*
X113789279Y-95421255D01*
X113857778Y-95321003D01*
X113881877Y-95202000D01*
X113881877Y-93202000D01*
X113860958Y-93090827D01*
X113795255Y-92988721D01*
X113695003Y-92920222D01*
X113576000Y-92896123D01*
X112071163Y-92896123D01*
X111423000Y-92247960D01*
X111423000Y-91567000D01*
X111400986Y-91456328D01*
X111390649Y-91404359D01*
X111298521Y-91266480D01*
X110359041Y-90327000D01*
X111676000Y-90327000D01*
X111676000Y-91261674D01*
X111721672Y-91371937D01*
X111806064Y-91456328D01*
X111916327Y-91502000D01*
X112651000Y-91502000D01*
X112726000Y-91427000D01*
X112726000Y-90252000D01*
X112826000Y-90252000D01*
X112826000Y-91427000D01*
X112901000Y-91502000D01*
X113635673Y-91502000D01*
X113745936Y-91456328D01*
X113830328Y-91371937D01*
X113876000Y-91261674D01*
X113876000Y-90327000D01*
X113801000Y-90252000D01*
X112826000Y-90252000D01*
X112726000Y-90252000D01*
X111751000Y-90252000D01*
X111676000Y-90327000D01*
X110359041Y-90327000D01*
X109933520Y-89901480D01*
X109795641Y-89809351D01*
X109768657Y-89803984D01*
X109633000Y-89777000D01*
X109359877Y-89777000D01*
X109359877Y-89202000D01*
X109348649Y-89142326D01*
X111676000Y-89142326D01*
X111676000Y-90077000D01*
X111751000Y-90152000D01*
X112726000Y-90152000D01*
X112726000Y-88977000D01*
X112826000Y-88977000D01*
X112826000Y-90152000D01*
X113801000Y-90152000D01*
X113876000Y-90077000D01*
X113876000Y-89142326D01*
X113830328Y-89032063D01*
X113745936Y-88947672D01*
X113635673Y-88902000D01*
X112901000Y-88902000D01*
X112826000Y-88977000D01*
X112726000Y-88977000D01*
X112651000Y-88902000D01*
X111916327Y-88902000D01*
X111806064Y-88947672D01*
X111721672Y-89032063D01*
X111676000Y-89142326D01*
X109348649Y-89142326D01*
X109338958Y-89090827D01*
X109273255Y-88988721D01*
X109173003Y-88920222D01*
X109054000Y-88896123D01*
X107354000Y-88896123D01*
X107242827Y-88917042D01*
X107140721Y-88982745D01*
X107072222Y-89082997D01*
X107048123Y-89202000D01*
X100705000Y-89202000D01*
X100705000Y-85190000D01*
X106311000Y-85190000D01*
X106311000Y-85990000D01*
X106387225Y-86273207D01*
X106566026Y-86505686D01*
X106820182Y-86652044D01*
X106894551Y-86671296D01*
X107011000Y-86613146D01*
X107011000Y-85190000D01*
X106311000Y-85190000D01*
X100705000Y-85190000D01*
X100705000Y-68410000D01*
X102195634Y-68410000D01*
X102252724Y-68697013D01*
X102415304Y-68940330D01*
X102571953Y-69045000D01*
X102415304Y-69149670D01*
X102252724Y-69392987D01*
X102195634Y-69680000D01*
X102252724Y-69967013D01*
X102415304Y-70210330D01*
X102571953Y-70315000D01*
X102415304Y-70419670D01*
X102252724Y-70662987D01*
X102195634Y-70950000D01*
X102252724Y-71237013D01*
X102415304Y-71480330D01*
X102571953Y-71585000D01*
X102415304Y-71689670D01*
X102252724Y-71932987D01*
X102195634Y-72220000D01*
X102252724Y-72507013D01*
X102415304Y-72750330D01*
X102571953Y-72855000D01*
X102415304Y-72959670D01*
X102252724Y-73202987D01*
X102195634Y-73490000D01*
X102252724Y-73777013D01*
X102415304Y-74020330D01*
X102571953Y-74125000D01*
X102415304Y-74229670D01*
X102252724Y-74472987D01*
X102195634Y-74760000D01*
X102252724Y-75047013D01*
X102415304Y-75290330D01*
X102571953Y-75395000D01*
X102415304Y-75499670D01*
X102252724Y-75742987D01*
X102195634Y-76030000D01*
X102252724Y-76317013D01*
X102415304Y-76560330D01*
X102571953Y-76665000D01*
X102415304Y-76769670D01*
X102252724Y-77012987D01*
X102195634Y-77300000D01*
X102252724Y-77587013D01*
X102415304Y-77830330D01*
X102571953Y-77935000D01*
X102415304Y-78039670D01*
X102252724Y-78282987D01*
X102195634Y-78570000D01*
X102252724Y-78857013D01*
X102415304Y-79100330D01*
X102571953Y-79205000D01*
X102415304Y-79309670D01*
X102252724Y-79552987D01*
X102195634Y-79840000D01*
X102252724Y-80127013D01*
X102415304Y-80370330D01*
X102571953Y-80475000D01*
X102415304Y-80579670D01*
X102252724Y-80822987D01*
X102195634Y-81110000D01*
X102252724Y-81397013D01*
X102415304Y-81640330D01*
X102571953Y-81745000D01*
X102415304Y-81849670D01*
X102252724Y-82092987D01*
X102195634Y-82380000D01*
X102252724Y-82667013D01*
X102415304Y-82910330D01*
X102571953Y-83015000D01*
X102415304Y-83119670D01*
X102252724Y-83362987D01*
X102195634Y-83650000D01*
X102252724Y-83937013D01*
X102415304Y-84180330D01*
X102658621Y-84342910D01*
X102945634Y-84400000D01*
X104606366Y-84400000D01*
X104893379Y-84342910D01*
X104972564Y-84290000D01*
X106311000Y-84290000D01*
X106311000Y-85090000D01*
X107011000Y-85090000D01*
X107011000Y-83666854D01*
X107111000Y-83666854D01*
X107111000Y-85090000D01*
X107131000Y-85090000D01*
X107131000Y-85190000D01*
X107111000Y-85190000D01*
X107111000Y-86613146D01*
X107227449Y-86671296D01*
X107301818Y-86652044D01*
X107555974Y-86505686D01*
X107688697Y-86333118D01*
X107800670Y-86500696D01*
X108043987Y-86663276D01*
X108331000Y-86720366D01*
X108618013Y-86663276D01*
X108861330Y-86500696D01*
X108966000Y-86344047D01*
X109070670Y-86500696D01*
X109313987Y-86663276D01*
X109601000Y-86720366D01*
X109888013Y-86663276D01*
X110131330Y-86500696D01*
X110236000Y-86344047D01*
X110340670Y-86500696D01*
X110583987Y-86663276D01*
X110871000Y-86720366D01*
X111158013Y-86663276D01*
X111401330Y-86500696D01*
X111506000Y-86344047D01*
X111610670Y-86500696D01*
X111853987Y-86663276D01*
X112141000Y-86720366D01*
X112428013Y-86663276D01*
X112671330Y-86500696D01*
X112776000Y-86344047D01*
X112880670Y-86500696D01*
X113123987Y-86663276D01*
X113411000Y-86720366D01*
X113698013Y-86663276D01*
X113941330Y-86500696D01*
X114046000Y-86344047D01*
X114150670Y-86500696D01*
X114393987Y-86663276D01*
X114681000Y-86720366D01*
X114968013Y-86663276D01*
X115211330Y-86500696D01*
X115316000Y-86344047D01*
X115420670Y-86500696D01*
X115663987Y-86663276D01*
X115951000Y-86720366D01*
X116238013Y-86663276D01*
X116481330Y-86500696D01*
X116586000Y-86344047D01*
X116690670Y-86500696D01*
X116933987Y-86663276D01*
X117221000Y-86720366D01*
X117508013Y-86663276D01*
X117751330Y-86500696D01*
X117856000Y-86344047D01*
X117960670Y-86500696D01*
X118203987Y-86663276D01*
X118491000Y-86720366D01*
X118778013Y-86663276D01*
X119021330Y-86500696D01*
X119183910Y-86257379D01*
X119241000Y-85970366D01*
X119241000Y-84309634D01*
X119183910Y-84022621D01*
X119021330Y-83779304D01*
X118778013Y-83616724D01*
X118491000Y-83559634D01*
X118203987Y-83616724D01*
X117960670Y-83779304D01*
X117856000Y-83935953D01*
X117751330Y-83779304D01*
X117508013Y-83616724D01*
X117221000Y-83559634D01*
X116933987Y-83616724D01*
X116690670Y-83779304D01*
X116586000Y-83935953D01*
X116481330Y-83779304D01*
X116238013Y-83616724D01*
X115951000Y-83559634D01*
X115663987Y-83616724D01*
X115420670Y-83779304D01*
X115316000Y-83935953D01*
X115211330Y-83779304D01*
X114968013Y-83616724D01*
X114681000Y-83559634D01*
X114393987Y-83616724D01*
X114150670Y-83779304D01*
X114046000Y-83935953D01*
X113941330Y-83779304D01*
X113698013Y-83616724D01*
X113411000Y-83559634D01*
X113123987Y-83616724D01*
X112880670Y-83779304D01*
X112776000Y-83935953D01*
X112671330Y-83779304D01*
X112428013Y-83616724D01*
X112141000Y-83559634D01*
X111853987Y-83616724D01*
X111610670Y-83779304D01*
X111506000Y-83935953D01*
X111401330Y-83779304D01*
X111158013Y-83616724D01*
X110871000Y-83559634D01*
X110583987Y-83616724D01*
X110340670Y-83779304D01*
X110236000Y-83935953D01*
X110131330Y-83779304D01*
X109888013Y-83616724D01*
X109601000Y-83559634D01*
X109313987Y-83616724D01*
X109070670Y-83779304D01*
X108966000Y-83935953D01*
X108861330Y-83779304D01*
X108618013Y-83616724D01*
X108331000Y-83559634D01*
X108043987Y-83616724D01*
X107800670Y-83779304D01*
X107688697Y-83946882D01*
X107555974Y-83774314D01*
X107301818Y-83627956D01*
X107227449Y-83608704D01*
X107111000Y-83666854D01*
X107011000Y-83666854D01*
X106894551Y-83608704D01*
X106820182Y-83627956D01*
X106566026Y-83774314D01*
X106387225Y-84006793D01*
X106311000Y-84290000D01*
X104972564Y-84290000D01*
X105136696Y-84180330D01*
X105299276Y-83937013D01*
X105356366Y-83650000D01*
X105299276Y-83362987D01*
X105136696Y-83119670D01*
X104980047Y-83015000D01*
X105136696Y-82910330D01*
X105299276Y-82667013D01*
X105356366Y-82380000D01*
X105299276Y-82092987D01*
X105136696Y-81849670D01*
X104980047Y-81745000D01*
X105136696Y-81640330D01*
X105299276Y-81397013D01*
X105356366Y-81110000D01*
X105299276Y-80822987D01*
X105136696Y-80579670D01*
X104980047Y-80475000D01*
X105136696Y-80370330D01*
X105299276Y-80127013D01*
X105356366Y-79840000D01*
X105299276Y-79552987D01*
X105136696Y-79309670D01*
X104980047Y-79205000D01*
X105136696Y-79100330D01*
X105299276Y-78857013D01*
X105356366Y-78570000D01*
X105299276Y-78282987D01*
X105136696Y-78039670D01*
X104980047Y-77935000D01*
X105136696Y-77830330D01*
X105299276Y-77587013D01*
X105356366Y-77300000D01*
X105299276Y-77012987D01*
X105136696Y-76769670D01*
X104980047Y-76665000D01*
X105136696Y-76560330D01*
X105299276Y-76317013D01*
X105356366Y-76030000D01*
X105299276Y-75742987D01*
X105136696Y-75499670D01*
X104980047Y-75395000D01*
X105136696Y-75290330D01*
X105299276Y-75047013D01*
X105356366Y-74760000D01*
X105299276Y-74472987D01*
X105136696Y-74229670D01*
X104980047Y-74125000D01*
X105136696Y-74020330D01*
X105299276Y-73777013D01*
X105356366Y-73490000D01*
X105299276Y-73202987D01*
X105136696Y-72959670D01*
X104980047Y-72855000D01*
X105136696Y-72750330D01*
X105299276Y-72507013D01*
X105356366Y-72220000D01*
X105299276Y-71932987D01*
X105136696Y-71689670D01*
X104980047Y-71585000D01*
X105136696Y-71480330D01*
X105299276Y-71237013D01*
X105356366Y-70950000D01*
X105299276Y-70662987D01*
X105136696Y-70419670D01*
X104980047Y-70315000D01*
X105136696Y-70210330D01*
X105299276Y-69967013D01*
X105356366Y-69680000D01*
X105299276Y-69392987D01*
X105136696Y-69149670D01*
X104980047Y-69045000D01*
X105136696Y-68940330D01*
X105207076Y-68835000D01*
X105952960Y-68835000D01*
X106636000Y-69518040D01*
X106636000Y-71331470D01*
X106552641Y-71414683D01*
X106461104Y-71635129D01*
X106460896Y-71873824D01*
X106552048Y-72094429D01*
X106720683Y-72263359D01*
X106941129Y-72354896D01*
X107179824Y-72355104D01*
X107400429Y-72263952D01*
X107569359Y-72095317D01*
X107660896Y-71874871D01*
X107660926Y-71840000D01*
X109170123Y-71840000D01*
X109170123Y-77840000D01*
X109191042Y-77951173D01*
X109256745Y-78053279D01*
X109356997Y-78121778D01*
X109476000Y-78145877D01*
X115476000Y-78145877D01*
X115587173Y-78124958D01*
X115689279Y-78059255D01*
X115757778Y-77959003D01*
X115781877Y-77840000D01*
X115781877Y-71840000D01*
X115760958Y-71728827D01*
X115695255Y-71626721D01*
X115595003Y-71558222D01*
X115476000Y-71534123D01*
X109476000Y-71534123D01*
X109364827Y-71555042D01*
X109262721Y-71620745D01*
X109194222Y-71720997D01*
X109170123Y-71840000D01*
X107660926Y-71840000D01*
X107661104Y-71636176D01*
X107569952Y-71415571D01*
X107486000Y-71331472D01*
X107486000Y-69342000D01*
X107453649Y-69179360D01*
X107453649Y-69179359D01*
X107361520Y-69041480D01*
X106429520Y-68109480D01*
X106291641Y-68017351D01*
X106264657Y-68011984D01*
X106129000Y-67985000D01*
X105207076Y-67985000D01*
X105136696Y-67879670D01*
X104969118Y-67767697D01*
X105141686Y-67634974D01*
X105288044Y-67380818D01*
X105307296Y-67306449D01*
X105249146Y-67190000D01*
X103826000Y-67190000D01*
X103826000Y-67210000D01*
X103726000Y-67210000D01*
X103726000Y-67190000D01*
X102302854Y-67190000D01*
X102244704Y-67306449D01*
X102263956Y-67380818D01*
X102410314Y-67634974D01*
X102582882Y-67767697D01*
X102415304Y-67879670D01*
X102252724Y-68122987D01*
X102195634Y-68410000D01*
X100705000Y-68410000D01*
X100705000Y-66973551D01*
X102244704Y-66973551D01*
X102302854Y-67090000D01*
X103726000Y-67090000D01*
X103726000Y-66390000D01*
X103826000Y-66390000D01*
X103826000Y-67090000D01*
X105249146Y-67090000D01*
X105307296Y-66973551D01*
X120244704Y-66973551D01*
X120302854Y-67090000D01*
X121726000Y-67090000D01*
X121726000Y-66390000D01*
X121826000Y-66390000D01*
X121826000Y-67090000D01*
X123249146Y-67090000D01*
X123307296Y-66973551D01*
X123288044Y-66899182D01*
X123141686Y-66645026D01*
X122909207Y-66466225D01*
X122626000Y-66390000D01*
X121826000Y-66390000D01*
X121726000Y-66390000D01*
X120926000Y-66390000D01*
X120642793Y-66466225D01*
X120410314Y-66645026D01*
X120263956Y-66899182D01*
X120244704Y-66973551D01*
X105307296Y-66973551D01*
X105288044Y-66899182D01*
X105141686Y-66645026D01*
X104909207Y-66466225D01*
X104626000Y-66390000D01*
X103826000Y-66390000D01*
X103726000Y-66390000D01*
X102926000Y-66390000D01*
X102642793Y-66466225D01*
X102410314Y-66645026D01*
X102263956Y-66899182D01*
X102244704Y-66973551D01*
X100705000Y-66973551D01*
X100705000Y-66140000D01*
X124085000Y-66140000D01*
X124085000Y-98849311D01*
X124085000Y-98849311D01*
G37*
X124085000Y-98849311D02*
X123709165Y-98286835D01*
X123121362Y-97894077D01*
X122428000Y-97756159D01*
X121734638Y-97894077D01*
X121146835Y-98286835D01*
X120754077Y-98874638D01*
X120616159Y-99568000D01*
X120754077Y-100261362D01*
X121146835Y-100849165D01*
X121709311Y-101225000D01*
X102826689Y-101225000D01*
X103389165Y-100849165D01*
X103781923Y-100261362D01*
X103919841Y-99568000D01*
X103843658Y-99185000D01*
X106800000Y-99185000D01*
X106800000Y-99969674D01*
X106845672Y-100079937D01*
X106930064Y-100164328D01*
X107040327Y-100210000D01*
X107825000Y-100210000D01*
X107900000Y-100135000D01*
X107900000Y-99110000D01*
X108000000Y-99110000D01*
X108000000Y-100135000D01*
X108075000Y-100210000D01*
X108859673Y-100210000D01*
X108969936Y-100164328D01*
X109054328Y-100079937D01*
X109100000Y-99969674D01*
X109100000Y-99185000D01*
X109025000Y-99110000D01*
X108000000Y-99110000D01*
X107900000Y-99110000D01*
X106875000Y-99110000D01*
X106800000Y-99185000D01*
X103843658Y-99185000D01*
X103814313Y-99037470D01*
X109340000Y-99037470D01*
X109340000Y-99082530D01*
X109427539Y-99522616D01*
X109676827Y-99895703D01*
X110049914Y-100144991D01*
X110490000Y-100232530D01*
X110930086Y-100144991D01*
X111303173Y-99895703D01*
X111552461Y-99522616D01*
X111640000Y-99082530D01*
X111640000Y-99037470D01*
X111880000Y-99037470D01*
X111880000Y-99082530D01*
X111967539Y-99522616D01*
X112216827Y-99895703D01*
X112589914Y-100144991D01*
X113030000Y-100232530D01*
X113470086Y-100144991D01*
X113843173Y-99895703D01*
X114092461Y-99522616D01*
X114180000Y-99082530D01*
X114180000Y-99037470D01*
X114420000Y-99037470D01*
X114420000Y-99082530D01*
X114507539Y-99522616D01*
X114756827Y-99895703D01*
X115129914Y-100144991D01*
X115570000Y-100232530D01*
X116010086Y-100144991D01*
X116383173Y-99895703D01*
X116632461Y-99522616D01*
X116720000Y-99082530D01*
X116720000Y-99037470D01*
X116632461Y-98597384D01*
X116383173Y-98224297D01*
X116010086Y-97975009D01*
X115570000Y-97887470D01*
X115129914Y-97975009D01*
X114756827Y-98224297D01*
X114507539Y-98597384D01*
X114420000Y-99037470D01*
X114180000Y-99037470D01*
X114092461Y-98597384D01*
X113889464Y-98293576D01*
X115489520Y-96693520D01*
X115581649Y-96555641D01*
X115587016Y-96528657D01*
X115614000Y-96393000D01*
X115614000Y-96257925D01*
X115650480Y-96312520D01*
X115904479Y-96566520D01*
X115996608Y-96628078D01*
X116042360Y-96658649D01*
X116143783Y-96678823D01*
X117532071Y-98067112D01*
X117296827Y-98224297D01*
X117047539Y-98597384D01*
X116960000Y-99037470D01*
X116960000Y-99082530D01*
X117047539Y-99522616D01*
X117296827Y-99895703D01*
X117669914Y-100144991D01*
X118110000Y-100232530D01*
X118550086Y-100144991D01*
X118923173Y-99895703D01*
X119172461Y-99522616D01*
X119260000Y-99082530D01*
X119260000Y-99037470D01*
X119172461Y-98597384D01*
X118923173Y-98224297D01*
X118550086Y-97975009D01*
X118520090Y-97969042D01*
X118505179Y-97894077D01*
X118502649Y-97881359D01*
X118410521Y-97743480D01*
X116632520Y-95965480D01*
X116494641Y-95873351D01*
X116467657Y-95867984D01*
X116393217Y-95853177D01*
X116376000Y-95835960D01*
X116376000Y-95454264D01*
X116378064Y-95456328D01*
X116488327Y-95502000D01*
X117223000Y-95502000D01*
X117298000Y-95427000D01*
X117298000Y-94252000D01*
X117398000Y-94252000D01*
X117398000Y-95427000D01*
X117473000Y-95502000D01*
X118207673Y-95502000D01*
X118317936Y-95456328D01*
X118402328Y-95371937D01*
X118448000Y-95261674D01*
X118448000Y-94327000D01*
X118373000Y-94252000D01*
X117398000Y-94252000D01*
X117298000Y-94252000D01*
X117278000Y-94252000D01*
X117278000Y-94152000D01*
X117298000Y-94152000D01*
X117298000Y-92977000D01*
X117398000Y-92977000D01*
X117398000Y-94152000D01*
X118373000Y-94152000D01*
X118448000Y-94077000D01*
X118448000Y-94027000D01*
X120770000Y-94027000D01*
X120770000Y-94411674D01*
X120815672Y-94521937D01*
X120900064Y-94606328D01*
X121010327Y-94652000D01*
X121795000Y-94652000D01*
X121870000Y-94577000D01*
X121870000Y-93952000D01*
X121970000Y-93952000D01*
X121970000Y-94577000D01*
X122045000Y-94652000D01*
X122829673Y-94652000D01*
X122939936Y-94606328D01*
X123024328Y-94521937D01*
X123070000Y-94411674D01*
X123070000Y-94027000D01*
X122995000Y-93952000D01*
X121970000Y-93952000D01*
X121870000Y-93952000D01*
X120845000Y-93952000D01*
X120770000Y-94027000D01*
X118448000Y-94027000D01*
X118448000Y-93392326D01*
X120770000Y-93392326D01*
X120770000Y-93777000D01*
X120845000Y-93852000D01*
X121870000Y-93852000D01*
X121870000Y-93227000D01*
X121970000Y-93227000D01*
X121970000Y-93852000D01*
X122995000Y-93852000D01*
X123070000Y-93777000D01*
X123070000Y-93392326D01*
X123024328Y-93282063D01*
X122939936Y-93197672D01*
X122829673Y-93152000D01*
X122045000Y-93152000D01*
X121970000Y-93227000D01*
X121870000Y-93227000D01*
X121795000Y-93152000D01*
X121010327Y-93152000D01*
X120900064Y-93197672D01*
X120815672Y-93282063D01*
X120770000Y-93392326D01*
X118448000Y-93392326D01*
X118448000Y-93142326D01*
X118402328Y-93032063D01*
X118317936Y-92947672D01*
X118207673Y-92902000D01*
X117473000Y-92902000D01*
X117398000Y-92977000D01*
X117298000Y-92977000D01*
X117223000Y-92902000D01*
X116488327Y-92902000D01*
X116378064Y-92947672D01*
X116376000Y-92949736D01*
X116376000Y-91447567D01*
X116428997Y-91483778D01*
X116548000Y-91507877D01*
X118148000Y-91507877D01*
X118259173Y-91486958D01*
X118361279Y-91421255D01*
X118429778Y-91321003D01*
X118453877Y-91202000D01*
X118453877Y-90627000D01*
X120764123Y-90627000D01*
X120764123Y-90952000D01*
X120785042Y-91063173D01*
X120850745Y-91165279D01*
X120950997Y-91233778D01*
X121070000Y-91257877D01*
X122770000Y-91257877D01*
X122881173Y-91236958D01*
X122983279Y-91171255D01*
X123051778Y-91071003D01*
X123075877Y-90952000D01*
X123075877Y-90052000D01*
X123054958Y-89940827D01*
X122989255Y-89838721D01*
X122889003Y-89770222D01*
X122770000Y-89746123D01*
X122345000Y-89746123D01*
X122345000Y-84400000D01*
X122606366Y-84400000D01*
X122893379Y-84342910D01*
X123136696Y-84180330D01*
X123299276Y-83937013D01*
X123356366Y-83650000D01*
X123299276Y-83362987D01*
X123136696Y-83119670D01*
X122980047Y-83015000D01*
X123136696Y-82910330D01*
X123299276Y-82667013D01*
X123356366Y-82380000D01*
X123299276Y-82092987D01*
X123136696Y-81849670D01*
X122980047Y-81745000D01*
X123136696Y-81640330D01*
X123299276Y-81397013D01*
X123356366Y-81110000D01*
X123299276Y-80822987D01*
X123136696Y-80579670D01*
X122980047Y-80475000D01*
X123136696Y-80370330D01*
X123299276Y-80127013D01*
X123356366Y-79840000D01*
X123299276Y-79552987D01*
X123136696Y-79309670D01*
X122980047Y-79205000D01*
X123136696Y-79100330D01*
X123299276Y-78857013D01*
X123356366Y-78570000D01*
X123299276Y-78282987D01*
X123136696Y-78039670D01*
X122980047Y-77935000D01*
X123136696Y-77830330D01*
X123299276Y-77587013D01*
X123356366Y-77300000D01*
X123299276Y-77012987D01*
X123136696Y-76769670D01*
X122980047Y-76665000D01*
X123136696Y-76560330D01*
X123299276Y-76317013D01*
X123356366Y-76030000D01*
X123299276Y-75742987D01*
X123136696Y-75499670D01*
X122980047Y-75395000D01*
X123136696Y-75290330D01*
X123299276Y-75047013D01*
X123356366Y-74760000D01*
X123299276Y-74472987D01*
X123136696Y-74229670D01*
X122980047Y-74125000D01*
X123136696Y-74020330D01*
X123299276Y-73777013D01*
X123356366Y-73490000D01*
X123299276Y-73202987D01*
X123136696Y-72959670D01*
X122980047Y-72855000D01*
X123136696Y-72750330D01*
X123299276Y-72507013D01*
X123356366Y-72220000D01*
X123299276Y-71932987D01*
X123136696Y-71689670D01*
X122980047Y-71585000D01*
X123136696Y-71480330D01*
X123299276Y-71237013D01*
X123356366Y-70950000D01*
X123299276Y-70662987D01*
X123136696Y-70419670D01*
X122980047Y-70315000D01*
X123136696Y-70210330D01*
X123299276Y-69967013D01*
X123356366Y-69680000D01*
X123299276Y-69392987D01*
X123136696Y-69149670D01*
X122980047Y-69045000D01*
X123136696Y-68940330D01*
X123299276Y-68697013D01*
X123356366Y-68410000D01*
X123299276Y-68122987D01*
X123136696Y-67879670D01*
X122969118Y-67767697D01*
X123141686Y-67634974D01*
X123288044Y-67380818D01*
X123307296Y-67306449D01*
X123249146Y-67190000D01*
X121826000Y-67190000D01*
X121826000Y-67210000D01*
X121726000Y-67210000D01*
X121726000Y-67190000D01*
X120302854Y-67190000D01*
X120244704Y-67306449D01*
X120263956Y-67380818D01*
X120410314Y-67634974D01*
X120582882Y-67767697D01*
X120415304Y-67879670D01*
X120252724Y-68122987D01*
X120195634Y-68410000D01*
X120252724Y-68697013D01*
X120415304Y-68940330D01*
X120571953Y-69045000D01*
X120415304Y-69149670D01*
X120252724Y-69392987D01*
X120195634Y-69680000D01*
X120252724Y-69967013D01*
X120415304Y-70210330D01*
X120571953Y-70315000D01*
X120415304Y-70419670D01*
X120344924Y-70525000D01*
X118915000Y-70525000D01*
X118752359Y-70557351D01*
X118614480Y-70649479D01*
X116920480Y-72343480D01*
X116828351Y-72481359D01*
X116828351Y-72481360D01*
X116796000Y-72644000D01*
X116796000Y-80899000D01*
X116822984Y-81034657D01*
X116828351Y-81061641D01*
X116920480Y-81199520D01*
X119082000Y-83361041D01*
X119082000Y-83693000D01*
X119100173Y-83784360D01*
X119114351Y-83855641D01*
X119206480Y-83993520D01*
X119336000Y-84123041D01*
X119336000Y-87072959D01*
X119076960Y-87332000D01*
X116078000Y-87332000D01*
X115915359Y-87364351D01*
X115777480Y-87456480D01*
X114888480Y-88345480D01*
X114796351Y-88483359D01*
X114796351Y-88483360D01*
X114764000Y-88646000D01*
X114764000Y-96216960D01*
X113082956Y-97898004D01*
X113030000Y-97887470D01*
X112589914Y-97975009D01*
X112216827Y-98224297D01*
X111967539Y-98597384D01*
X111880000Y-99037470D01*
X111640000Y-99037470D01*
X111552461Y-98597384D01*
X111303173Y-98224297D01*
X110930086Y-97975009D01*
X110490000Y-97887470D01*
X110049914Y-97975009D01*
X109676827Y-98224297D01*
X109427539Y-98597384D01*
X109340000Y-99037470D01*
X103814313Y-99037470D01*
X103781923Y-98874638D01*
X103389165Y-98286835D01*
X103184866Y-98150326D01*
X106800000Y-98150326D01*
X106800000Y-98935000D01*
X106875000Y-99010000D01*
X107900000Y-99010000D01*
X107900000Y-97985000D01*
X108000000Y-97985000D01*
X108000000Y-99010000D01*
X109025000Y-99010000D01*
X109100000Y-98935000D01*
X109100000Y-98150326D01*
X109054328Y-98040063D01*
X108969936Y-97955672D01*
X108859673Y-97910000D01*
X108075000Y-97910000D01*
X108000000Y-97985000D01*
X107900000Y-97985000D01*
X107825000Y-97910000D01*
X107040327Y-97910000D01*
X106930064Y-97955672D01*
X106845672Y-98040063D01*
X106800000Y-98150326D01*
X103184866Y-98150326D01*
X102801362Y-97894077D01*
X102108000Y-97756159D01*
X101414638Y-97894077D01*
X100826835Y-98286835D01*
X100705000Y-98469174D01*
X100705000Y-94027000D01*
X102482000Y-94027000D01*
X102482000Y-94411674D01*
X102527672Y-94521937D01*
X102612064Y-94606328D01*
X102722327Y-94652000D01*
X103507000Y-94652000D01*
X103582000Y-94577000D01*
X103582000Y-93952000D01*
X103682000Y-93952000D01*
X103682000Y-94577000D01*
X103757000Y-94652000D01*
X104541673Y-94652000D01*
X104651936Y-94606328D01*
X104736328Y-94521937D01*
X104782000Y-94411674D01*
X104782000Y-94027000D01*
X104707000Y-93952000D01*
X103682000Y-93952000D01*
X103582000Y-93952000D01*
X102557000Y-93952000D01*
X102482000Y-94027000D01*
X100705000Y-94027000D01*
X100705000Y-93392326D01*
X102482000Y-93392326D01*
X102482000Y-93777000D01*
X102557000Y-93852000D01*
X103582000Y-93852000D01*
X103582000Y-93227000D01*
X103682000Y-93227000D01*
X103682000Y-93852000D01*
X104707000Y-93852000D01*
X104782000Y-93777000D01*
X104782000Y-93392326D01*
X104736328Y-93282063D01*
X104651936Y-93197672D01*
X104541673Y-93152000D01*
X103757000Y-93152000D01*
X103682000Y-93227000D01*
X103582000Y-93227000D01*
X103507000Y-93152000D01*
X102722327Y-93152000D01*
X102612064Y-93197672D01*
X102527672Y-93282063D01*
X102482000Y-93392326D01*
X100705000Y-93392326D01*
X100705000Y-90052000D01*
X102476123Y-90052000D01*
X102476123Y-90952000D01*
X102497042Y-91063173D01*
X102562745Y-91165279D01*
X102662997Y-91233778D01*
X102782000Y-91257877D01*
X103786837Y-91257877D01*
X105778544Y-93249585D01*
X105779351Y-93253641D01*
X105871480Y-93391520D01*
X106982479Y-94502520D01*
X107011539Y-94521937D01*
X107048123Y-94546382D01*
X107048123Y-95202000D01*
X107069042Y-95313173D01*
X107134745Y-95415279D01*
X107234997Y-95483778D01*
X107354000Y-95507877D01*
X109054000Y-95507877D01*
X109165173Y-95486958D01*
X109267279Y-95421255D01*
X109335778Y-95321003D01*
X109359877Y-95202000D01*
X109359877Y-93202000D01*
X109338958Y-93090827D01*
X109273255Y-92988721D01*
X109173003Y-92920222D01*
X109054000Y-92896123D01*
X107354000Y-92896123D01*
X107242827Y-92917042D01*
X107140721Y-92982745D01*
X107072222Y-93082997D01*
X107048123Y-93202000D01*
X107048123Y-93366082D01*
X106565456Y-92883416D01*
X106564649Y-92879360D01*
X106505261Y-92790480D01*
X106472520Y-92741479D01*
X104770222Y-91039182D01*
X104787877Y-90952000D01*
X104787877Y-90052000D01*
X104766958Y-89940827D01*
X104701255Y-89838721D01*
X104601003Y-89770222D01*
X104482000Y-89746123D01*
X102782000Y-89746123D01*
X102670827Y-89767042D01*
X102568721Y-89832745D01*
X102500222Y-89932997D01*
X102476123Y-90052000D01*
X100705000Y-90052000D01*
X100705000Y-89202000D01*
X107048123Y-89202000D01*
X107048123Y-91202000D01*
X107069042Y-91313173D01*
X107134745Y-91415279D01*
X107234997Y-91483778D01*
X107354000Y-91507877D01*
X109054000Y-91507877D01*
X109165173Y-91486958D01*
X109267279Y-91421255D01*
X109335778Y-91321003D01*
X109359877Y-91202000D01*
X109359877Y-90627000D01*
X109456960Y-90627000D01*
X110573000Y-91743041D01*
X110573000Y-92424000D01*
X110599984Y-92559657D01*
X110605351Y-92586641D01*
X110697480Y-92724520D01*
X111670123Y-93697164D01*
X111670123Y-95202000D01*
X111691042Y-95313173D01*
X111756745Y-95415279D01*
X111856997Y-95483778D01*
X111976000Y-95507877D01*
X113576000Y-95507877D01*
X113687173Y-95486958D01*
X113789279Y-95421255D01*
X113857778Y-95321003D01*
X113881877Y-95202000D01*
X113881877Y-93202000D01*
X113860958Y-93090827D01*
X113795255Y-92988721D01*
X113695003Y-92920222D01*
X113576000Y-92896123D01*
X112071163Y-92896123D01*
X111423000Y-92247960D01*
X111423000Y-91567000D01*
X111400986Y-91456328D01*
X111390649Y-91404359D01*
X111298521Y-91266480D01*
X110359041Y-90327000D01*
X111676000Y-90327000D01*
X111676000Y-91261674D01*
X111721672Y-91371937D01*
X111806064Y-91456328D01*
X111916327Y-91502000D01*
X112651000Y-91502000D01*
X112726000Y-91427000D01*
X112726000Y-90252000D01*
X112826000Y-90252000D01*
X112826000Y-91427000D01*
X112901000Y-91502000D01*
X113635673Y-91502000D01*
X113745936Y-91456328D01*
X113830328Y-91371937D01*
X113876000Y-91261674D01*
X113876000Y-90327000D01*
X113801000Y-90252000D01*
X112826000Y-90252000D01*
X112726000Y-90252000D01*
X111751000Y-90252000D01*
X111676000Y-90327000D01*
X110359041Y-90327000D01*
X109933520Y-89901480D01*
X109795641Y-89809351D01*
X109768657Y-89803984D01*
X109633000Y-89777000D01*
X109359877Y-89777000D01*
X109359877Y-89202000D01*
X109348649Y-89142326D01*
X111676000Y-89142326D01*
X111676000Y-90077000D01*
X111751000Y-90152000D01*
X112726000Y-90152000D01*
X112726000Y-88977000D01*
X112826000Y-88977000D01*
X112826000Y-90152000D01*
X113801000Y-90152000D01*
X113876000Y-90077000D01*
X113876000Y-89142326D01*
X113830328Y-89032063D01*
X113745936Y-88947672D01*
X113635673Y-88902000D01*
X112901000Y-88902000D01*
X112826000Y-88977000D01*
X112726000Y-88977000D01*
X112651000Y-88902000D01*
X111916327Y-88902000D01*
X111806064Y-88947672D01*
X111721672Y-89032063D01*
X111676000Y-89142326D01*
X109348649Y-89142326D01*
X109338958Y-89090827D01*
X109273255Y-88988721D01*
X109173003Y-88920222D01*
X109054000Y-88896123D01*
X107354000Y-88896123D01*
X107242827Y-88917042D01*
X107140721Y-88982745D01*
X107072222Y-89082997D01*
X107048123Y-89202000D01*
X100705000Y-89202000D01*
X100705000Y-85190000D01*
X106311000Y-85190000D01*
X106311000Y-85990000D01*
X106387225Y-86273207D01*
X106566026Y-86505686D01*
X106820182Y-86652044D01*
X106894551Y-86671296D01*
X107011000Y-86613146D01*
X107011000Y-85190000D01*
X106311000Y-85190000D01*
X100705000Y-85190000D01*
X100705000Y-68410000D01*
X102195634Y-68410000D01*
X102252724Y-68697013D01*
X102415304Y-68940330D01*
X102571953Y-69045000D01*
X102415304Y-69149670D01*
X102252724Y-69392987D01*
X102195634Y-69680000D01*
X102252724Y-69967013D01*
X102415304Y-70210330D01*
X102571953Y-70315000D01*
X102415304Y-70419670D01*
X102252724Y-70662987D01*
X102195634Y-70950000D01*
X102252724Y-71237013D01*
X102415304Y-71480330D01*
X102571953Y-71585000D01*
X102415304Y-71689670D01*
X102252724Y-71932987D01*
X102195634Y-72220000D01*
X102252724Y-72507013D01*
X102415304Y-72750330D01*
X102571953Y-72855000D01*
X102415304Y-72959670D01*
X102252724Y-73202987D01*
X102195634Y-73490000D01*
X102252724Y-73777013D01*
X102415304Y-74020330D01*
X102571953Y-74125000D01*
X102415304Y-74229670D01*
X102252724Y-74472987D01*
X102195634Y-74760000D01*
X102252724Y-75047013D01*
X102415304Y-75290330D01*
X102571953Y-75395000D01*
X102415304Y-75499670D01*
X102252724Y-75742987D01*
X102195634Y-76030000D01*
X102252724Y-76317013D01*
X102415304Y-76560330D01*
X102571953Y-76665000D01*
X102415304Y-76769670D01*
X102252724Y-77012987D01*
X102195634Y-77300000D01*
X102252724Y-77587013D01*
X102415304Y-77830330D01*
X102571953Y-77935000D01*
X102415304Y-78039670D01*
X102252724Y-78282987D01*
X102195634Y-78570000D01*
X102252724Y-78857013D01*
X102415304Y-79100330D01*
X102571953Y-79205000D01*
X102415304Y-79309670D01*
X102252724Y-79552987D01*
X102195634Y-79840000D01*
X102252724Y-80127013D01*
X102415304Y-80370330D01*
X102571953Y-80475000D01*
X102415304Y-80579670D01*
X102252724Y-80822987D01*
X102195634Y-81110000D01*
X102252724Y-81397013D01*
X102415304Y-81640330D01*
X102571953Y-81745000D01*
X102415304Y-81849670D01*
X102252724Y-82092987D01*
X102195634Y-82380000D01*
X102252724Y-82667013D01*
X102415304Y-82910330D01*
X102571953Y-83015000D01*
X102415304Y-83119670D01*
X102252724Y-83362987D01*
X102195634Y-83650000D01*
X102252724Y-83937013D01*
X102415304Y-84180330D01*
X102658621Y-84342910D01*
X102945634Y-84400000D01*
X104606366Y-84400000D01*
X104893379Y-84342910D01*
X104972564Y-84290000D01*
X106311000Y-84290000D01*
X106311000Y-85090000D01*
X107011000Y-85090000D01*
X107011000Y-83666854D01*
X107111000Y-83666854D01*
X107111000Y-85090000D01*
X107131000Y-85090000D01*
X107131000Y-85190000D01*
X107111000Y-85190000D01*
X107111000Y-86613146D01*
X107227449Y-86671296D01*
X107301818Y-86652044D01*
X107555974Y-86505686D01*
X107688697Y-86333118D01*
X107800670Y-86500696D01*
X108043987Y-86663276D01*
X108331000Y-86720366D01*
X108618013Y-86663276D01*
X108861330Y-86500696D01*
X108966000Y-86344047D01*
X109070670Y-86500696D01*
X109313987Y-86663276D01*
X109601000Y-86720366D01*
X109888013Y-86663276D01*
X110131330Y-86500696D01*
X110236000Y-86344047D01*
X110340670Y-86500696D01*
X110583987Y-86663276D01*
X110871000Y-86720366D01*
X111158013Y-86663276D01*
X111401330Y-86500696D01*
X111506000Y-86344047D01*
X111610670Y-86500696D01*
X111853987Y-86663276D01*
X112141000Y-86720366D01*
X112428013Y-86663276D01*
X112671330Y-86500696D01*
X112776000Y-86344047D01*
X112880670Y-86500696D01*
X113123987Y-86663276D01*
X113411000Y-86720366D01*
X113698013Y-86663276D01*
X113941330Y-86500696D01*
X114046000Y-86344047D01*
X114150670Y-86500696D01*
X114393987Y-86663276D01*
X114681000Y-86720366D01*
X114968013Y-86663276D01*
X115211330Y-86500696D01*
X115316000Y-86344047D01*
X115420670Y-86500696D01*
X115663987Y-86663276D01*
X115951000Y-86720366D01*
X116238013Y-86663276D01*
X116481330Y-86500696D01*
X116586000Y-86344047D01*
X116690670Y-86500696D01*
X116933987Y-86663276D01*
X117221000Y-86720366D01*
X117508013Y-86663276D01*
X117751330Y-86500696D01*
X117856000Y-86344047D01*
X117960670Y-86500696D01*
X118203987Y-86663276D01*
X118491000Y-86720366D01*
X118778013Y-86663276D01*
X119021330Y-86500696D01*
X119183910Y-86257379D01*
X119241000Y-85970366D01*
X119241000Y-84309634D01*
X119183910Y-84022621D01*
X119021330Y-83779304D01*
X118778013Y-83616724D01*
X118491000Y-83559634D01*
X118203987Y-83616724D01*
X117960670Y-83779304D01*
X117856000Y-83935953D01*
X117751330Y-83779304D01*
X117508013Y-83616724D01*
X117221000Y-83559634D01*
X116933987Y-83616724D01*
X116690670Y-83779304D01*
X116586000Y-83935953D01*
X116481330Y-83779304D01*
X116238013Y-83616724D01*
X115951000Y-83559634D01*
X115663987Y-83616724D01*
X115420670Y-83779304D01*
X115316000Y-83935953D01*
X115211330Y-83779304D01*
X114968013Y-83616724D01*
X114681000Y-83559634D01*
X114393987Y-83616724D01*
X114150670Y-83779304D01*
X114046000Y-83935953D01*
X113941330Y-83779304D01*
X113698013Y-83616724D01*
X113411000Y-83559634D01*
X113123987Y-83616724D01*
X112880670Y-83779304D01*
X112776000Y-83935953D01*
X112671330Y-83779304D01*
X112428013Y-83616724D01*
X112141000Y-83559634D01*
X111853987Y-83616724D01*
X111610670Y-83779304D01*
X111506000Y-83935953D01*
X111401330Y-83779304D01*
X111158013Y-83616724D01*
X110871000Y-83559634D01*
X110583987Y-83616724D01*
X110340670Y-83779304D01*
X110236000Y-83935953D01*
X110131330Y-83779304D01*
X109888013Y-83616724D01*
X109601000Y-83559634D01*
X109313987Y-83616724D01*
X109070670Y-83779304D01*
X108966000Y-83935953D01*
X108861330Y-83779304D01*
X108618013Y-83616724D01*
X108331000Y-83559634D01*
X108043987Y-83616724D01*
X107800670Y-83779304D01*
X107688697Y-83946882D01*
X107555974Y-83774314D01*
X107301818Y-83627956D01*
X107227449Y-83608704D01*
X107111000Y-83666854D01*
X107011000Y-83666854D01*
X106894551Y-83608704D01*
X106820182Y-83627956D01*
X106566026Y-83774314D01*
X106387225Y-84006793D01*
X106311000Y-84290000D01*
X104972564Y-84290000D01*
X105136696Y-84180330D01*
X105299276Y-83937013D01*
X105356366Y-83650000D01*
X105299276Y-83362987D01*
X105136696Y-83119670D01*
X104980047Y-83015000D01*
X105136696Y-82910330D01*
X105299276Y-82667013D01*
X105356366Y-82380000D01*
X105299276Y-82092987D01*
X105136696Y-81849670D01*
X104980047Y-81745000D01*
X105136696Y-81640330D01*
X105299276Y-81397013D01*
X105356366Y-81110000D01*
X105299276Y-80822987D01*
X105136696Y-80579670D01*
X104980047Y-80475000D01*
X105136696Y-80370330D01*
X105299276Y-80127013D01*
X105356366Y-79840000D01*
X105299276Y-79552987D01*
X105136696Y-79309670D01*
X104980047Y-79205000D01*
X105136696Y-79100330D01*
X105299276Y-78857013D01*
X105356366Y-78570000D01*
X105299276Y-78282987D01*
X105136696Y-78039670D01*
X104980047Y-77935000D01*
X105136696Y-77830330D01*
X105299276Y-77587013D01*
X105356366Y-77300000D01*
X105299276Y-77012987D01*
X105136696Y-76769670D01*
X104980047Y-76665000D01*
X105136696Y-76560330D01*
X105299276Y-76317013D01*
X105356366Y-76030000D01*
X105299276Y-75742987D01*
X105136696Y-75499670D01*
X104980047Y-75395000D01*
X105136696Y-75290330D01*
X105299276Y-75047013D01*
X105356366Y-74760000D01*
X105299276Y-74472987D01*
X105136696Y-74229670D01*
X104980047Y-74125000D01*
X105136696Y-74020330D01*
X105299276Y-73777013D01*
X105356366Y-73490000D01*
X105299276Y-73202987D01*
X105136696Y-72959670D01*
X104980047Y-72855000D01*
X105136696Y-72750330D01*
X105299276Y-72507013D01*
X105356366Y-72220000D01*
X105299276Y-71932987D01*
X105136696Y-71689670D01*
X104980047Y-71585000D01*
X105136696Y-71480330D01*
X105299276Y-71237013D01*
X105356366Y-70950000D01*
X105299276Y-70662987D01*
X105136696Y-70419670D01*
X104980047Y-70315000D01*
X105136696Y-70210330D01*
X105299276Y-69967013D01*
X105356366Y-69680000D01*
X105299276Y-69392987D01*
X105136696Y-69149670D01*
X104980047Y-69045000D01*
X105136696Y-68940330D01*
X105207076Y-68835000D01*
X105952960Y-68835000D01*
X106636000Y-69518040D01*
X106636000Y-71331470D01*
X106552641Y-71414683D01*
X106461104Y-71635129D01*
X106460896Y-71873824D01*
X106552048Y-72094429D01*
X106720683Y-72263359D01*
X106941129Y-72354896D01*
X107179824Y-72355104D01*
X107400429Y-72263952D01*
X107569359Y-72095317D01*
X107660896Y-71874871D01*
X107660926Y-71840000D01*
X109170123Y-71840000D01*
X109170123Y-77840000D01*
X109191042Y-77951173D01*
X109256745Y-78053279D01*
X109356997Y-78121778D01*
X109476000Y-78145877D01*
X115476000Y-78145877D01*
X115587173Y-78124958D01*
X115689279Y-78059255D01*
X115757778Y-77959003D01*
X115781877Y-77840000D01*
X115781877Y-71840000D01*
X115760958Y-71728827D01*
X115695255Y-71626721D01*
X115595003Y-71558222D01*
X115476000Y-71534123D01*
X109476000Y-71534123D01*
X109364827Y-71555042D01*
X109262721Y-71620745D01*
X109194222Y-71720997D01*
X109170123Y-71840000D01*
X107660926Y-71840000D01*
X107661104Y-71636176D01*
X107569952Y-71415571D01*
X107486000Y-71331472D01*
X107486000Y-69342000D01*
X107453649Y-69179360D01*
X107453649Y-69179359D01*
X107361520Y-69041480D01*
X106429520Y-68109480D01*
X106291641Y-68017351D01*
X106264657Y-68011984D01*
X106129000Y-67985000D01*
X105207076Y-67985000D01*
X105136696Y-67879670D01*
X104969118Y-67767697D01*
X105141686Y-67634974D01*
X105288044Y-67380818D01*
X105307296Y-67306449D01*
X105249146Y-67190000D01*
X103826000Y-67190000D01*
X103826000Y-67210000D01*
X103726000Y-67210000D01*
X103726000Y-67190000D01*
X102302854Y-67190000D01*
X102244704Y-67306449D01*
X102263956Y-67380818D01*
X102410314Y-67634974D01*
X102582882Y-67767697D01*
X102415304Y-67879670D01*
X102252724Y-68122987D01*
X102195634Y-68410000D01*
X100705000Y-68410000D01*
X100705000Y-66973551D01*
X102244704Y-66973551D01*
X102302854Y-67090000D01*
X103726000Y-67090000D01*
X103726000Y-66390000D01*
X103826000Y-66390000D01*
X103826000Y-67090000D01*
X105249146Y-67090000D01*
X105307296Y-66973551D01*
X120244704Y-66973551D01*
X120302854Y-67090000D01*
X121726000Y-67090000D01*
X121726000Y-66390000D01*
X121826000Y-66390000D01*
X121826000Y-67090000D01*
X123249146Y-67090000D01*
X123307296Y-66973551D01*
X123288044Y-66899182D01*
X123141686Y-66645026D01*
X122909207Y-66466225D01*
X122626000Y-66390000D01*
X121826000Y-66390000D01*
X121726000Y-66390000D01*
X120926000Y-66390000D01*
X120642793Y-66466225D01*
X120410314Y-66645026D01*
X120263956Y-66899182D01*
X120244704Y-66973551D01*
X105307296Y-66973551D01*
X105288044Y-66899182D01*
X105141686Y-66645026D01*
X104909207Y-66466225D01*
X104626000Y-66390000D01*
X103826000Y-66390000D01*
X103726000Y-66390000D01*
X102926000Y-66390000D01*
X102642793Y-66466225D01*
X102410314Y-66645026D01*
X102263956Y-66899182D01*
X102244704Y-66973551D01*
X100705000Y-66973551D01*
X100705000Y-66140000D01*
X124085000Y-66140000D01*
X124085000Y-98849311D01*
M02*
